/* XPM */
static char *result[] = {
/* columns rows colors chars-per-pixel */
"78 100 238 2 ",
"   c #3E3D3A",
".  c #3E3C37",
"X  c #7A1F08",
"o  c #57380B",
"O  c #5A3A0B",
"+  c #583807",
"@  c #593C11",
"#  c #7D260E",
"$  c #7F280F",
"%  c #7B2509",
"&  c #613E0D",
"*  c #66370B",
"=  c #7F2A12",
"-  c #7E2710",
";  c #723514",
":  c #413F3A",
">  c #453C34",
",  c #562F23",
"<  c #64420E",
"1  c #69450F",
"2  c #6B4611",
"3  c #6E4911",
"4  c #664615",
"5  c #744D12",
"6  c #754C16",
"7  c #7B5214",
"8  c #78531B",
"9  c #75480F",
"0  c #43403B",
"q  c #4D4538",
"w  c #544A3B",
"e  c #5D513F",
"r  c #664E27",
"t  c #765524",
"y  c #6E5634",
"u  c #7B623A",
"i  c #4C4841",
"p  c #514D46",
"a  c #58544C",
"s  c #5D5953",
"d  c #675942",
"f  c #695E4C",
"g  c #766549",
"h  c #736458",
"j  c #73706C",
"k  c #831F04",
"l  c #931C04",
"z  c #9D1E04",
"x  c #A31D03",
"c  c #A91D02",
"v  c #A71701",
"b  c #84250C",
"n  c #8B250C",
"m  c #832A0E",
"M  c #8A2A0E",
"N  c #892106",
"B  c #9B2105",
"V  c #972709",
"C  c #822C12",
"Z  c #8B2C12",
"A  c #873615",
"S  c #933B1A",
"D  c #993A0E",
"F  c #A22206",
"G  c #AA2708",
"H  c #B42304",
"J  c #BB2907",
"K  c #A5380C",
"L  c #AE3314",
"P  c #8B3A24",
"I  c #C32A07",
"U  c #CA2E08",
"Y  c #C72E08",
"T  c #CE320A",
"R  c #CB350D",
"E  c #D0320A",
"W  c #D0380F",
"Q  c #CE3A13",
"!  c #894815",
"~  c #954A1A",
"^  c #825515",
"/  c #855916",
"(  c #8B5C16",
")  c #845A1A",
"_  c #8C5E18",
"`  c #8C5617",
"'  c #965D1A",
"]  c #84560B",
"[  c #A7481C",
"{  c #B04F1E",
"}  c #8E601A",
"|  c #8F6014",
" . c #936314",
".. c #93631B",
"X. c #99661B",
"o. c #9C6A1D",
"O. c #9C6815",
"+. c #A26E1E",
"@. c #A26818",
"#. c #A6711E",
"$. c #95482A",
"%. c #9A5327",
"&. c #8F532A",
"*. c #A45826",
"=. c #B95822",
"-. c #A35935",
";. c #B65033",
":. c #8A6124",
">. c #946622",
",. c #9C6C23",
"<. c #976A28",
"1. c #876636",
"2. c #987239",
"3. c #976E32",
"4. c #A26F21",
"5. c #A9642C",
"6. c #A47123",
"7. c #AA7525",
"8. c #A4742A",
"9. c #AD792C",
"0. c #AA772A",
"q. c #B27D2C",
"w. c #AC6738",
"e. c #A27532",
"r. c #AC7B32",
"t. c #A77B38",
"y. c #B17E33",
"u. c #B97936",
"i. c #BE673E",
"p. c #D25531",
"a. c #C65022",
"s. c #9C5845",
"d. c #B05D4B",
"f. c #997948",
"g. c #8E7350",
"h. c #A07C45",
"j. c #A96B5A",
"k. c #B77A4C",
"l. c #977A71",
"z. c #C5674E",
"x. c #B8822F",
"c. c #B58233",
"v. c #BA8534",
"b. c #BE8936",
"n. c #B4843B",
"m. c #BA863A",
"M. c #BD893B",
"N. c #AB803F",
"B. c #C38D3C",
"V. c #C4863A",
"C. c #C6903E",
"Z. c #C9923E",
"A. c #9D845E",
"S. c #AA8346",
"D. c #BC8B43",
"F. c #B68946",
"G. c #A68654",
"H. c #BA8B54",
"J. c #BB9459",
"K. c #BF914C",
"L. c #9B8667",
"P. c #948979",
"I. c #B58477",
"U. c #B09264",
"Y. c #C48E41",
"T. c #C78949",
"R. c #C69141",
"E. c #CB9543",
"W. c #CF9846",
"Q. c #CD994B",
"!. c #C5954C",
"~. c #D19A46",
"^. c #D39C4A",
"/. c #CC9B52",
"(. c #C59858",
"). c #D19F53",
"_. c #C88E5E",
"`. c #D6A254",
"'. c #D4A45C",
"]. c #D9A65B",
"[. c #DAA85A",
"{. c #D4A152",
"}. c #C99765",
"|. c #C89572",
" X c #CDA364",
".X c #CCA56C",
"XX c #D4A662",
"oX c #DBAB64",
"OX c #D4AA6B",
"+X c #DBAE69",
"@X c #D4A46B",
"#X c #DEB06C",
"$X c #C8A878",
"%X c #D7AB73",
"&X c #DCB274",
"*X c #DDB57B",
"=X c #D7B076",
"-X c #E1B574",
";X c #E1B779",
":X c #E3B97C",
">X c #E4B876",
",X c #E0A16D",
"<X c #8F8D8A",
"1X c #908F8C",
"2X c #938C80",
"3X c #92918E",
"4X c #9C968E",
"5X c #9A9895",
"6X c #AF9890",
"7X c #A5A29E",
"8X c #B0A39E",
"9X c #AAA7A1",
"0X c #B9B4AE",
"qX c #BEB9B3",
"wX c #BBB6B0",
"eX c #C9998A",
"rX c #DAB685",
"tX c #CAAF97",
"yX c #E4BD83",
"uX c #E1BB85",
"iX c #EBAC9C",
"pX c #C1BCB5",
"aX c #C7B3A6",
"sX c #E7C189",
"dX c #E9C38B",
"fX c #E6C087",
"gX c #E7C696",
"hX c #D1C4B2",
"jX c #E9CDA4",
"kX c #E9D5B7",
"lX c #D7CBC5",
"zX c #D1CFCC",
"xX c #E9DCC9",
"cX c #E3D6CF",
"vX c #E8E2DB",
"bX c #F0E4D0",
"nX c #F4F2EF",
"mX c None",
/* pixels */
"mXmXmXmXmXmXmXmXmXmXmXmXmXmXmXmXmXmXmXmXmXmXmXmXmXmXmXmXmXmXmXmXmXmXmXmXmXmXmXmXmXmXmXmXmXmXmXmXmXmXmXmXmXmXmXmXmXmXmXmXmXmXmXmXmXmXmXmXmXmXmXmXmXmXmXmXmXmX",
"mXmXmXmXmXmXmXmXmXmXmXmXmXmXmXmXmXmXmXmXmXmXmXmXmXmXmXmXmXmXmXmXmXmXmXmXmXmXmXmXmXmXmXmXT E I mXmXmXmXmXmXmXmXmXmXmXmXmXmXmXmXmXmXmXmXmXmXmXmXmXmXmXmXmXmXmX",
"mXmXmXmXmXmXmXmXmXmXmXmXmXmXmXmXmXmXmXmXmXmXmXmXmXmXmXmXmXmXmXmXmXmXmXmXmXmXmXmXmXmXmXI H p.i.k mXmXmXmXmXmXmXmXmXmXmXmXmXmXmXmXmXmXmXmXmXmXmXmXmXmXmXmXmXmX",
"mXmXmXmXmXmXmXmXmXmXmXmXmXmXmXmXmXmXmXmXmXmXmXmXmXmXmXmXmXmXmXmXmXmXmXmXmXmXmXmXmXmXE H ;.%XH.b = mXmXmXmXmXmXmXmXmXmXmXmXmXmXmXmXmXmXmXmXmXmXmXmXmXmXmXmXmX",
"mXmXmXmXmXmXmXmXmXmXmXmXmXmXmXmXmXmXmXmXmXmXmXmXmXmXmXmXmXmXmXmXmXmXmXmXmXmXmXmXmXI H c z.:XQ.5.- # mXmXmXmXmXmXmXmXmXmXmXmXmXmXmXmXmXmXmXmXmXmXmXmXmXmXmXmX",
"mXmXmXmXmXmXmXmXmXmXmXmXmXmXmXmXmXmXmXmXmXmXmXmXmXmXmXmXmXmXmXmXmXmXmXmXmXmXT T E J z w.-X#X~.m.A # mXmXmXmXmXmXmXmXmXmXmXmXmXmXmXmXmXmXmXmXmXmXmXmXmXmXmXmX",
"mXmXmXmXmXmXmXmXmXmXmXmXmXmXmXmXmXmXmXmXmXmXmXmXmXmXmXmXmXmXmXmXmXmXmXmXmXT E I H F b k.dX#X^.m.` $ $ mXmXmXmXmXmXmXmXmXmXmXmXmXmXmXmXmXmXmXmXmXmXmXmXmXmXmX",
"mXmXmXmXmXmXmXmXmXmXmXmXmXmXmXmXmXmXmXmXmXmXmXmXmXmXmXmXmXmXmXmXmXmXmXmXmXE T H V b $.%X>X].^.m.! = $ mXmXmXmXmXmXmXmXmXmXmXmXmXmXmXmXmXmXmXmXmXmXmXmXmXmXmX",
"mXmXmXmXmXmXmXmXmXmXmXmXmXmXmXmXmXmXmXmXmXmXmXmXmXmXmXmXmXmXmXmXmXmXmXmXU E I H N % d.dX+X~.C.6.^ ; * mXmXmXmXmXmXmXmXmXmXmXmXmXmXmXmXmXmXmXmXmXmXmXmXmXmXmX",
"mXmXmXmXmXmXmXmXmXmXmXmXmXmXmXmXmXmXmXmXmXmXmXmXmXmXmXmXmXmXmXmXmXmXmXmXE T H z n $.}.:X].^.v.} 7 o o mXmXmXmXmXmXmXmXmXmXmXmXmXmXmXmXmXmXmXmXmXmXmXmXmXmXmX",
"mXmXmXmXmXmXmXmXmXmXmXmXmXmXmXmXmXmXmXmXmXmXmXmXmXmXmXmXmXmXmXmXmXmXmXE E I c N % k.dX+XZ.v.8./ 9 o < mXmXmXmXmXmXmXmXmXmXmXmXmXmXmXmXmXmXmXmXmXmX&X(.(.4.mX",
"mXmXmXmXmXmXmXmXmXmXmXmXmXmXmXmXmXmXmXmXmXmXmXmXmXmXmXmXmXmXmXmXmXmXE T T H z b $.}.yX).q.o.} 7 o o 1 _ _ mXmXmXmXmXmXmXmXmXmXmXmXmXmXmXmXmXmXdX*X!.+.+.+.mX",
"mXmXmXmXmXmXmXmXmXmXmXmXmXmXmXmXmXmXmXmXmXmXmXmXmXmXmXmXmXmXmXmXW T E E I B # -.|.dXXX9.+.+.o.7 o O 7 _ } ..mXmXmXmXmXmXmXmXmXmXmXmXmXmXmXmX-XdXXX4.+.+.mXmX",
"mXmXmXmXmXmXmXmXmXmXmXmXmXmXmXmXmXmXmXmXmXmXmXmXmXmXmXmXmXmXmXE U E E E F *.d.@XdX&Xm.9.9.+.o._ 1 < / _ / 5 7 / ( mXmXmXmXmXmXmXmXmXmXmXmXmXQ.#X(.#.+.o.mXmX",
"mXmXmXmXmXmXmXmXmXmXmXmXmXmXmXmXmXmXmXmXmXmXmXmXmXmXmXmXmXmXE E E T J G Z }.dXyX&Xm.7.Z.v.#.+...^ 5 _ ( 5 o & ^ mXmXmXmXmXmXmXmXmXmXmXmXmXmXv.B.c.+.+.4.mXmX",
"mXmXmXmXmXmXmXmXmXmXmXmXmXmXmXmXmXmXmXmXmXmXmXmXmXmXmXT T T E U J J Z $ = }.dXdXK.7.M.^.v.O.X.| _ / 7 5 O O 2 ` mXmXmXmXmXmXmXmXmXmXmXmXmX`.B.7.+.+.+.mXmXmX",
"mXmXmXmXmXmXmXmXmXmXmXmXmXmXmXmXmXmXmXmXmXmXmXmXmXT Y T U T U Y n - # = $.@XsX&Xm.x.^.^.v.o._ _ ..:.O O O 2 / ` mXmXmXmXmXmXmXmXmXmXmXmXoX~.B.v.mXmXmXmXmXmX",
"mXmXmXmXmXmXmXmXmXmXmXmXmXmXmXmXmXmXmXmXmXmXmXmXU I H T Q p.W J b # - C H.rXsX!.7.B.^.^.v..._ } 9.M.8 3 < _ ` mXmXmXmXmXmXmXmXmXmXmXmX+XoXB.+.mXmXmXmXmXmXmX",
"mXmXmXmXmXmXmXmXmXmXmXmXmXmXmXmXmXmXmXmXmXmXmXmXI F mXU p.iXQ Z = n b = C |.dXoX~.~.^.W.x.X.} 9.~.~.E.3.< ^ ^ mXmXmXmXmXmXmXmXmXmXmX`.^.~.v.mXmXmXmXmXmXmXmX",
"mXmXmXmXmXmXmXmXmXmXmXmXmXmXmXmXmXmXmXmXmXmXmXmXI H mXT E Q W Z C G n # b H.rX'.~.^.~.c.#.,.r.W.W.~.e.2 O O O mXmXmXmXmXmXmXmXmXmX:XoX~.b.4.mXmXmXmXmXmXmXmX",
"mXmXmXmXmXmXmXmXmXmXmXmXmXmXmXmXmXmXmXmXmXmXmXmXW R mXW E U J b n C # # - C _.F.r.B.~.Y.V.W.E.v.8.r.) 7 O o + O mXmXmXmXmXmXmXmX-X[.~.m.0.mXmXmXmXmXmXmXmXmX",
"mXmXmXmXmXmXmXmXmXmXmXmXmXmXmXmXmXmXmXmXmXmXmXmXmXmXmXT E I Z m z m - b - C u.<.< :.(.yX+X^.b._ < ) r.^ o @ r 8 Y.mXmXmXmXmXmX^.Q.E.m.mXmXmXmXmXmXmXmXmXmXmX",
"mXmXmXmXmXmXmXmXmXmXmXmXmXmXmXmXmXmXmXmXmXmXmXmXmXmXW U U H z m b = = # - u.r.c.) h.fXfX+X~.8.& 8 y.>.7 O u aX/.Q.mXmXmXmXmXyX`.v.7.mXmXmXmXmXmXmXmXmXmXmXmX",
"mXmXmXmXmXmXmXmXmXmXmXmXmXmXmXmXmXmXmXmXmXmXmXmXmXE U J U J n C z b # # - u.+XF...J.dX#X~.b.,./ ) ) & & t XX[.{.mXmXmXmXmXyXoXQ.q.mXmXmXmXmXmXmXmXmXmXmXmXmX",
"mXmXmXmXmXmXmXmXmXmXmXmXmXmXmXmXmXmXmXmXmXmXmXmXmXU U I H F b F J n - - = P }.*X=X:XyX Xv.,._ / 7 O o t  X].~.mXmXmXmXmXsXoXm.7.mXmXmXmXmXmXmXmXmXmXmXmXmXmX",
"mXmXmXmXmXmXmXmXmXmXmXmXmXmXmXmXmXmXmXmXmXmXmXmXmXY J Y F n n I Y n - P aXs.k.:XyXrXG.4 / ..7 O < & & 1.yX-X).mXmXmXmXyXyX`.q.mXmXmXmXmXmXmXmXmXmXmXmXmXmXmX",
"mXmXmXmXmXmXmXmXmXmXmXmXmXmXmXmXmXmXmXmXmXmXmXmXmXU U J n B Z R Q Z A _.gXrXjXjXS.t 4 O & < O o 8 K..X=X;X].uXfXmXmXmX].`.v.mXmXmXmXmXmXmXmXmXmXmXmXmXmXmXmX",
"mXmXmXmXmXmXmXmXmXmXmXmXmXmXmXmXmXmXmXmXmXmXmXmXmXJ E Y x L _.,X,X}.5.!.;XsXgXOX X1.1 / 3 O O O 1.:X:X].`.`.yXsXyXuX`.~.~.mXmXmXmXmXmXmXmXmXmXmXmXmXmXmXmXmX",
"mXmXmXmXmXmXmXmXmXmXmXmXmXmXmXmXmXmXmXmXmXmXmXmXmXH T U Y I -.rXdXdX.Xr.Q.'.n.8.8.<.) _ / 3 O y .XsX&X^.~.`.=Xt.2.t.OX>X;XyXdXyXmXmXmXmXmXmXmXmXmXmXmXmXmXmX",
"mXmXmXmXmXmXmXmXmXmXmXmXmXmXmXmXmXmXmXmXmXmXmXmXmXH J T E Y F -.*XdXuX3.,.B.B.m.b.8.7 < 1 < < t.yXuX].R.,.8.e.} ( } %XdXdXyX(.F.9.mXmXmXmXmXmXmXmXmXmXmXmXmX",
"mXmXmXmXmXmXmXmXmXmXmXmXmXmXmXmXmXmXmXmXmXmXmXmXmXmXJ T T H c B -.:XyX X<.,.8.B.^.E.:.+ + < ../.:X/.8.4._ _ X.o.,.(.*X(.D.D.y.+.4.mXmXmXmXmXmXmXmXmXmXmXmXmX",
"mXmXmXmXmXmXmXmXmXmXmXmXmXmXmXmXmXmXmXmXmXmXmXmXmXmXmXT U J c x Z -.F.K.,._ _ ,.M.^.r.< < >.B.oX%X8._ ( | o.+.+.6.D.Y.7.+.6.mXmXmXmXmXmXmXmXmXmXmXmXmXmXmXmX",
"mXmXmXmXmXmXmXmXmXmXmXmXmXmXmXmXmXmXmXmXmXmXmXmXmXmXmXmXT T J J V m ' o.7 ) 0.y.c.M.M.0.r.x.b.Q.N.} } } } } X.X.o.7 5 7 >.mXmXmXmXmXmXmXmXmXmXmXmXmXmXmXmXmX",
"mXmXmXmXmXmXmXmXmXmXmXmXmXmXmXmXmXmXmXmXmXmXmXmXmXmXmXmXmXmXE Y c b = mX7 / 4.0.X.F.oXoX&XS.8 n.F.} } } | | | 4 3 & o o mXmXmXmXmXmXmXmXmXmXmXmXmXmXmXmXmXmX",
"mXmXmXmXmXmXmXmXmXmXmXmXmXmXmXmXmXmXmXmXmXmXmXmXmXmXmXmXmXmXmXT J Z mXmX3 3 ^ _ 8.XXyX:XdXG.< ,.N.} } 7 3 3 3 O O o & <.E.mXmXmXmXmXmXmXmXmXmXmXmXmXmXmXmXmX",
"mXmXmXmXmXmXmXmXmXmXmXmXmXmXmXmXmXmXmXmXmXmXmXmXmXmXmXmXmXmXmXE U F mXmXmXO >.>.v.#XfXdXdXH.7 7 1 3 3 < o + + + o o & M.m.8 mXmXmXmXmXmXmXmXmXmXmXmXmXmXmXmX",
"mXmXmXmXmXmXmXmXmXmXmXmXmXmXmXmXmXmXmXmXmXmXmXmXmXmXmXmXmXmXE E R mXmXmXmXmXm.!.Q.#XdXfXsXOXN.<.2.:.4 O & 5 7 + + O :.c...< mXmXmXmXmXmXmXmXmXmXmXmXmXmXmXmX",
"mXmXmXmXmXmXmXmXmXmXmXmXmXmXmXmXmXmXmXmXmXmXmXmXmXmXmXmXmXT T mXmXmXmXmXmXmXQ.oXQ./.*XdXdX=XN.N.:XC.7 1 5 |  .+ + :.B.7.X.4 @ mXmXmXmXmXmXmXmXmXmXmXmXmXmXmX",
"mXmXmXmXmXmXmXmXmXmXmXmXmXmXmXmXmXmXmXmXmXmXmXmXmXmXmXmXmXmXmXmXmXmXmXmXmXmXW.^.x.v.+XsX=XN...F.'.c.} } | | ] & _ Z.B.6.+./ < mXmXmXmXmXmXmXmXmXmXmXmXmXmXmX",
"mXmXmXmXmXmXmXmXmXmXmXmXmXmXmXmXmXmXmXmXmXmXmXmXmXmXmXmXmXmXmXmXmXmXmXmXmXmX~.B.8.c.+XdXK.} v.^.M.} | | ( } G.A.W.~.c.#.+.0.) 5 mXmXmXmXmXmXmXmXmXmXmXmXmXmX",
"mXmXmXmXmXmXmXmXmXmXmXmXmXmXmXmXmXmXmXmXmXmXmXmXmXmXmXmXmXmXmXmXmXmXmXmXmXmXQ.c...8.).yXF.r.^.E.c.| ,.x.#.2.vXxX`.~.~.M.n.E.8._ mXmXmXmXmXmXmXmXmXmXmXmXmXmX",
"mXmXmXmXmXmXmXmXmXmXmXmXmXmXmXmXmXmXmXmXmXmXmXmXmXmXmXmXmXmXmXmXmXmXmXmXmXmXD.E.m.>.4.'.F.r.^.M.} x.~.^.b.3.kXyX*X*X#X:X>X`.8.} o.mXmXmXmXmXmXmXmXmXmXmXmXmX",
"mXmXmXmXmXmXmXmXmXmXmXmXmXmXmXmXmXmXmXmXmXmXmXmXmXmXmXmXmXmXmXmXmXmXmXmXsXyX2.8.E.r.) c.9.0.^.n.,.~.Z.c.c.3.+X[.vXnXgXdX].B.,.o.+.mXmXmXmXmXmXmXmXmXmXmXmXmX",
"mXmXmXmXmXmXmXmXmXmXmXmXmXmXmXmXmXmXmXmXmXmXmXmXmXmXmXmXmXmXmXmXmXmXmXmXmXyXG.) Y.c._ c.c.0.W.x.6.^.c.< 1.OX^./.nXvXgX:X`.8...o.+.mXmXmXmXmXmXmXmXmXmXmXmXmX",
"mXmXmXmXmXmXmXmXmXmXmXmXmXmXmXmXmXmXmXmXmXmXmXmXmXmXmXmXmXmXmXmXmXmXmXmXmX;X=Xr.(.(.e.E.D.D.Q.7.6.C.N.1.+X^.b.e.cXnXgX`.R.8.o.+.+.mXmXmXmXmXmXmXmXmXmXmXmXmX",
"mXmXmXmXmXmXmXmXmXmXmXmXmXmXmXmXmXmXmXmXmXmXmXmXmXmXmXmXmXmXmXmXmXmXmXmXmX^.~.n.J.=X:XyX*XOX:X(.o.c.3.oX^.b. .<.vXnXgXQ.,.o.+.+.+.mXmXmXmXmXmXmXmXmXmXmXmXmX",
"mXmXmXmXmXmXmXmXmXmXmXmXmXmXmXmXmXmXmXmXmXmXmXmXmXmXmXmXmXmXmXmXmXmXmXmXmXY.Q.+XS.y.+XyX(.#.D.J.7 N.OX{.b. .| <.xXjX:X8._ o.+.mXmXmXmXmXmXmXmXmXmXmXmXmXmXmX",
"mXmXmXmXmXmXmXmXmXmXmXmXmXmXmXmXmXmXmXmXmXmXmXmXmXmXmXmXmXmXmXmXmXmXmXmXmX' v.^.c.y.E.~.x.@.o.| N.;X-Xb. .|  .8.cXdXQ.,.o.+.+.mXmXmXmXmXmXmXmXmXmXmXmXmXmXmX",
"mXmXmXmXmXmXmXmXmXmXmXmXmXmXmXmXmXmXmXmXmXmXmXmXmXmXmXmXmXmXmXmXmXmXmXmXmX_ } v.OXF...7.#.O.t r N.&Xb. .|  .O.N.xX Xo.} o.#.mXmXmXmXmXmXmXmXmXmXmXmXmXmXmXmX",
"mXmXmXmXmXmXmXmXmXmXmXmXmXmXmXmXmXmXmXmXmXmXmXmXmXmXmXmXmXmXmXmXmXmXmXmXmXmX....J.A.u +.O. .r g =X X .|  .O.#.c.hXN.| o.#.+.mXmXmXmXmXmXmXmXmXmXmXmXmXmXmXmX",
"mXmXmXmXmXmXmXmXmXmXmXmXmXmXmXmXmXmXmXmXmXmXmXmXmXmXmXmXmXmXmXmXmXmXmXmXmXmXE.8.,.J.A.r } } 4 h >XR. . .O.#.O.x.Q.#.O.| } ..mXmXmXmXmXmXmXmXmXmXmXmXmXmXmXmX",
"mXmXmXmXmXmXmXmXmXmXmXmXmXmXmXmXmXmXmXmXmXmXmXmXmXmXmXmXmXmXmXmXmXmXmXmXmX^.^.Z.'.yXL.r 9.1.0 g {.b. .O.O.O.x.M.~.b.o.| ..b.mXmXmXmXmXmXmXmXmXmXmXmXmXmXmXmX",
"mXmXmXmXmXmXmXmXmXmXmXmXmXmXmXmXmXmXmXmXmXmXmXmXmXmXmXmXmXmXmXmXmXmXmXmX^.^.^.^.{.-XA.q e w . u ^.B. .#.+.+.#.E.~.W.,.} m.Q.mXmXmXmXmXmXmXmXmXmXmXmXmXmXmXmX",
"mXmXmXmXmXmXmXmXmXmXmXmXmXmXmXmXmXmXmXmXmXmXmXmXmXmXmXmXmXmXmXmXmXmXmXmXE.W.^.^.^.{.!.y   0 . g #XC.O. .#.+.x.E.9.R.Z.C.Z.<.mXmXmXmXmXmXmXmXmXmXmXmXmXmXmXmX",
"mXmXmXmXmXmXmXmXmXmXmXmXmXmXmXmXmXmXmXmXmXmXmXmXmXmXmXmXmXmXmXmXmXmXmXW.x.C.^.^.^.^.S.0 a a . g oX'.x.x.+.x.b.E.,.R.^.W.:.< mXmXmXmXmXmXmXmXmXmXmXmXmXmXmXmX",
"mXmXmXmXmXmXmXmXmXmXmXmXmXmXmXmXmXmXmXmXmXmXmXmXmXmXmXmXmXmXmXmXmXmXyX^.7.B.^.^.^.Q.G.a s s . q A. X .O.x.b.M.t n.E.^.8.4 mXmXmXmXmXmXmXmXmXmXmXmXmXmXmXmXmX",
"mXmXmXmXmXmXmXmXmXmXmXmXmXmXmXmXmXmXmXmXmXmXmXmXmXmXmXmXmXmXmXmXmXyX'.c.mX0.Z.^.^.f.e w w i >   f ).b.+.7.E.9./ 6.8.C.,.mXmXmXmXmXmXmXmXmXmXmXmXmXmXmXmXmXmX",
"mXmXmXmXmXmXmXmXmXmXmXmXmXmXmXmXmXmXmXmXmXmXmXmXmXmXmXmXmXmXmXmXyXXXv.mXmX Xm.C.{.f.p a a   0 0 w y 1.7.Z.E.8.o.X.} ,.,.mXmXmXmXmXmXmXmXmXmXmXmXmXmXmXmXmXmX",
"mXmXmXmXmXmXmXmXmXmXmXmXmXmXmXmXmXmXmXmXmXmXmXmXmXmXmXmXmXmXmX:XoX^.0.mXmXdXF.7.Z.g.i i i   0   0   e Z.E.x.6.+.+.X.} ..mXmXmXmXmXmXmXmXmXmXmXmXmXmXmXmXmXmX",
"mXmXmXmXmXmXmXmXmXmXmXmXmXmXmXmXmXmXmXmXpXpXmXmXmXmXmXmXmXmXyX+X~.b.9.mXmXyXm.+.b.F.g p     0 0     u E.q.+.+.+.+.+.X.o.6.mXmXmXmXmXmXmXmXmXmXmXmXmXmXmXmXmX",
"mXmXmXmXmXmXmXmXmXmXmXmXmXmXmXmXmXmXmXqXpX0X}.mXmXmXmXmXmXmX+X^.^.c.mXmXmXyXF.+.0.C.f.p 0 0 0 0 0   g B.+.+.#.+.+.x.v.6.+.mXmXmXmXmXmXmXmXmXmXmXmXmXmXmXmXmX",
"mXmXmXmXmXmXmXmXmXmXmXmXmXmXmXmXmXmXmXqXwXtX).q.mXmXmXmXmXmX~.~.Y.mXmXmXdXyXn.+.X.3.d q : 0 q : 0   e 2.6.+.+.+.6.E.v.8 X.mXmXmXmXmXmXmXmXmXmXmXmXmXmXmXmXmX",
"mXmXmXmXmXmXmXmXmXmXmXmXmXmXmXmXmXmXmXmXmXgX>XZ.x.mXmXmX~.^.W.v.mXmXmXmXyXyX.Xy.o.r   0 0   : : : 0 : e o.+.+.6.b.E.) O 6 X.mXmXmXmXmXmXmXmXmXmXmXmXmXmXmXmX",
"mXmXmXmXmXmXmXmXmXmXmXmXmXmXmXmXmXmXmXmXmXmX;X].E.c.mX~.^.~.E.mXmXmXmXmXmX(.=X!.q.u   : : : : : 0 0 > e D.7.c.b.E.c.) 5 5 } mXmXmXmXmXmXmXmXmXmXmXmXmXmXmXmX",
"mXmXmXmXmXmXmXmXmXmXmXmXmXmXmXmXmXmXmXmXmXmXmXfX[.Q.J.~.~.b.mXmXmXmXmXmXmX .F.D.Z.g.. . 0 0 : : 0 0 a L.*XM.Q.v.E.4.@.o.7 ^ X.mXmXmXmXmXmXmXmXmXmXmXmXmXmXmX",
"mXmXmXmXmXmXmXmXmXmXmXmXmXmXmXmXmXmXmXmXmXmXmXsX+XtXtX^.v.+.mXmXmXmXmXmXmX!.,.8.E.S.r > s s s j > , s.yXoXv.v.,.v.7.+.+.o._ X.mXmXmXmXmXmXmXmXmXmXmXmXmXmXmX",
"mXmXmXmXmXmXmXmXmXmXmXmXmXmXmXmXmXmXmXmXmXmX-X^..X0X.Xx.o.mXmXmXmXmXmXmXdXdXt._ 8.E.5.; h mXmX8X, X -.;XB.( O.6.+.4.+.+.+.8.+.mXmXmXmXmXmXmXmXmXmXmXmXmXmXmX",
"mXmXmXmXmXmXmXmXmXmXmXmXmXmXmXmXmXmXmXmXmXmX>X`. X$Xb.+...mXmXmXmXmXmXmXyX*Xn.X._ y.u.Z P mXmXj.n b w.oXw.A o.+.+.#.+.#.9.E.8.mXmXmXmXmXmXmXmXmXmXmXmXmXmXmX",
"mXmXmXmXmXmXmXmXmXmXmXmXmXmXmXmXmXmXmXmXmXkX>XoXZ.v.#.+.+.| mXmXmXmXmXmXsX'.9.+.' 5.v.%.P mXmXaXC =.E.5.M A O.+.+.+.+.7.E.M.8 mXmXmXmXmXmXmXmXmXmXmXmXmXmXmX",
"mXmXmXmXmXmXmXmXmXmXmXmXmXmXmXmXmXmXmXmXnXkX^.^.Z.#.+.+.+.} ..mXmXmXmXmXOX].v.+.! = m % -.mXmXtXS u.5.V F M ' 9.4.+.9.E.~.) O 5 mXmXmXmXmXmXmXmXmXmXmXmXmXmX",
"mXmXmXmXmXmXmXmXmXmXmXmXmXmXmXmXmXmXmXbXxXgX~.~.b.+.mXmXo.o.o.X.mXmXmXmX8.(.`.c.~ # Z M s.mXmXj.m b n x z z S @Xy.0.B.~.E.8 7 5 _ mXmXmXmXmXmXmXmXmXmXmXmXmX",
"mXmXmXmXmXmXmXmXmXmXmXmXmXmXmXmXdXdXrX%X^.`.~.v.#.mXmXmXmXmX+.o.o.mXmXmXr.8.c.E.*.l =.*.b mXmXmX% N x N ; K S =X).b.,.c.4._ X.} X.mXmXmXmXmXmXmXmXmXmXmXmXmX",
"mXmXmXmXmXmXmXmXmXmXmXmXmXmXmXdXfXfX$XG.x.C.c.o.mXmXmXmXmXmX+.+.+.X.mXmX*Xn.o.c.*.l { *.k mXmXmXm N V ; 6 ~ L %XT.' ......o.+.X.o.mXmXmXmXmXmXmXmXmXmXmXmXmX",
"mXmXmXmXmXmXmXmXmXmXmXmXmXmXmXkXgX=X).Q.b.:.< & mXmXmXmXmXmXmX6.+.6.L.=X].9.O.o.D F H V l ;.mXmXmXC % ; _ C %..X$.$ ' +.+.+.+.+.mXmXmXmXmXmXmXmXmXmXmXmXmXmX",
"mXmXmXmXmXmXmXmXmXmXmXmXmXmXmXnXhXzX=XC.U.A.t + mXmXmXmXmXmXmXmXt.e.L.2.OXF.7.7.~ l a.5.l z.mXmXmXm M ~ ' 8 .XD.C - ' #.6.7.#...3 mXmXmXmXmXmXmXmXmXmXmXmXmX",
"mXmXmXmXmXmXmXmXmXmXmXmXmXmXzXpXzXvX4Xu A.P.g.< mXmXmXmXmXmXmXmX2X2X2X2. X/.Z.W.*.l a.*.l d.mXmXI.m M @...t J.8 $ b 4.7.B.E.9.( 2 mXmXmXmXmXmXmXmXmXmXmXmXmX",
"mXmXmXmXmXmXmXmXmXmXmXmXmXhXqXwXzXvX<Xa u 8.8.o.mXmXmXmXmXmXmXmXmXmXmX6.<.X.m.^.{ v =.*.k j.mXmXI.m N K #...4 * V Z (.).W.q.X.5 O 6 mXmXmXmXmXmXmXmXmXmXmXmX",
"mXmXmXmXmXmXmXmXmXmXmXmXwXwX7X5XzX5Xs j t.+.o.,.mXmXmXmXmXmXmXmXmXmXmX=Xc.....M.*.B J V k j.mXmXI.b k K @...O O B Z }./.8.......X.7 5 mXmXmXmXmXmXmXmXmXmXmX",
"mXmXmXmXmXmXmXmXmXmXmXmXqX9X5XqXzXj a s mXo.o.mXmXmXmXmXmXmXmXmXmXmXmXrXN.O.....! [ V.*.k s.mX6XP N k K ..2 O * B Z }.r._ o.o.+.#._ / } mXmXmXmXmXmXmXmXmXmX",
"mXmXmXmXmXmXmXmXmXmXmXpXwX5XqX0X5Xj s mXmXmXmXmXmXmXmXmXmXmXmXmXmXmXmX*Xc.+.o...A A u.=.v L mXeXm % l B * 1 / * B m }.%.u.R.q.+.+.X.! = mXmXmXmXmXmXmXmXmXmX",
"mXmXmXmXmXmXmXmXmXmXmXpX9X9XqX9X1Xj s mXmXmXmXmXmXmXmXmXmXmXmXmXmXmXA $.u.9.+.c.%.m A V v v mXmXI.N x c Z ..c.; B F L S _.[.E.7.~ ! ! = = mXmXmXmXmXmXmXmXmX",
"mXmXmXmXmXmXmXmXmXmXpX9X9XwX9X3Xj s mXmXmXmXmXmXmXmXmXmXmXmXmXmXmXmXmX- v.E.0.V.B.%.% z c mXmXmXvX6XB F K 7.E.r.Z x G T.oX^.b.,.D V n - = C mXmXmXmXmXmXmXmX",
"mXmXmXmXmXmXmXmXmXpXqX5X5X5X5Xj s mXmXmXmXmXmXmXmXmXmXmXmXmXmXmXmXmXmXL [ { u.n.Y./.-.l z.lXmXmXlX-.m G G o.E.E.A G |.gX[.b.' A V F z n C mXmXmXmXmXmXmXmXmX",
"mXmXmXmXmXmXmXmXmXqX9X3X3X3Xj s a mXmXmXmXmXmXmXmXmXmXmXmXmXmXmXmXmXmXT F z K u.E.#X%X|.eXtXmXmXs.k B G G X.9.Y.; ; tXdX'.=.V b M H B n = = # mXmXmXmXmXmXmX",
"mXmXmXmXmXmXmXmXmX5X3X3X1X1Xh s mXmXmXmXmXmXmXmXmXmXmXmXmXmXmXmXmXmXW T H x n S u.#XdXbXhXaXnXmXj.mXc c mXmX,.OX}.r .XfXB.K c x x c N m $ mXmXmXmXmXmXmXmXmX",
"mXmXmXmXmXmXmXmXmX1X1X3X1X3XmXmXmXmXmXmXmXmXmXmXmXmXmXmXmXmXmXmXmXmXR F x x z b S T.>XgXbXmXmXmXmXmXmXmXmXmXe.:X#XJ.*X!.[ G c c mXc z # $ mXmXmXmXmXmXmXmXmX",
"mXmXmXmXmXmXmXmXmX1X1X3X3XmXmXmXmXmXmXmXmXmXmXmXmXmXmXmXmXmXmXmXmXmXmXmXmXc c n % -.Q. XmXmXmXmXmXmXmXmXmXmXXX*X].:XH.~ F G V mXmXmXmXmX$ mXmXmXmXmXmXmXmXmX",
"mXmXmXmXmXmXmXmX3X<X1XmXmXmXmXmXmXmXmXmXmXmXmXmXmXmXmXmXmXmXmXmXmXmXmXmXmXmXk # % 5.v.mXmXmXmXmXmXmXmXmXmXmXfXoX{.].,.$ B mXC mXmXmXmXmXmXmXmXmXmXmXmXmXmXmX",
"mXmXmXmXmXmX5X1X<X<XmXmXmXmXmXmXmXmXmXmXmXmXmXmXmXmXmXmXmXmXmXmXmXmXmXmXmXmXX $.5.u.b.mXmXmXmXmXmXmXmXmXmXmXyX).[.^.,.; M mXmXmXmXmXmXmXmXmXmXmXmXmXmXmXmXmX",
"mXmXmXmXmX9X3X<X<XmXmXmXmXmXmXmXmXmXmXmXmXmXmXmXmXmXmXmXmXmXmXmXmXmXmXmXmXmX5.V.^.^.b.mXmXmXmXmXmXmXmXmXmXmX:X`.*XM.} < ; mXmXmXmXmXmXmXmXmXmXmXmXmXmXmXmXmX",
"mXmXmXmXmX3X3X1XmXmXmXmXmXmXmXmXmXmXmXmXmXmXmXmXmXmXmXmXmXmXmXmXmXmXmXmXmX`.~.^.^.D.8.mXmXmXmXmXmXmXmXmXmXmXXXoX*XH.8.7 ; mXmXmXmXmXmXmXmXmXmXmXmXmXmXmXmXmX",
"mXmXmXmX9X3X3XmXmXmXmXmXmXmXmXmXmXmXmXmXmXmXmXmXmXmXmXmXmXmXmXmXmXmXmXmX-X`.^.Z.W.<.7 mXmXmXmXmXmXmXmXmXmXmX!.uXsX>X/.,.mXmXmXmXmXmXmXmXmXmXmXmXmXmXmXmXmXmX",
"mXmXmX0X5XmXmXmXmXmXmXmXmXmXmXmXmXmXmXmXmXmXmXmXmXmXmXmXmXmXmXmXmXmX:X-X).^.B.v.b.>.^ mXmXmXmXmXmXmXmXmXmXmX:X&X#X`.W.,.} mXmXmXmXmXmXmXmXmXmXmXmXmXmXmXmXmX",
"mXmXqX0XmXmXmXmXmXmXmXmXmXmXmXmXmXmXmXmXmXmXmXmXmXmXmXmXmXmXmXmXmX7.'.).^.Z.7.c.q...5 mXmXmXmXmXmXmXmXmXmXq.&XoX^.^.W.,.} mXmXmXmXmXmXmXmXmXmXmXmXmXmXmXmXmX",
"mXqXqXpXmXmXmXmXmXmXmXmXmXmXmXmXmXmXmXmXmXmXmXmXmXmXmXmXmXmXmXmX4.6.b.B.B.4.X.o...3 o mXmXmXmXmXmXmXmXmXmXy.#X-X^.M.v.>.7 mXmXmXmXmXmXmXmXmXmXmXmXmXmXmXmXmX",
"mXqXqXmXmXmXmXmXmXmXmXmXmXmXmXmXmXmXmXmXmXmXmXmXmXmXmXmXmXmXmX+.+.+.4.+. ._ _ _ 3 + O mXmXmXmXmXmXmXmXmXmXmXQ.E.W.>._ _ 3 mXmXmXmXmXmXmXmXmXmXmXmXmXmXmXmXmX",
"mXmXmXmXmXmXmXmXmXmXmXmXmXmXmXmXmXmXmXmXmXmXmXmXmXmXmXmXmXmXmXmXmXmXmXmXmXmXmXmXmXmXmXmXmXmXmXmXmXmXmXmXmXmXmX6.v..._ ..mXmXmXmXmXmXmXmXmXmXmXmXmXmXmXmXmXmX",
"mXmXmXmXmXmXmXmXmXmXmXmXmXmXmXmXmXmXmXmXmXmXmXmXmXmXmXmXmXmXmXmXmXmXmXmXmXmXmXmXmXmXmXmXmXmXmXmXmXmXmXmXmXmXmXo..._ _ mXmXmXmXmXmXmXmXmXmXmXmXmXmXmXmXmXmXmX",
"mXmXmXmXmXmXmXmXmXmXmXmXmXmXmXmXmXmXmXmXmXmXmXmXmXmXmXmXmXmXmXmXmXmXmXmXmXmXmXmXmXmXmXmXmXmXmXmXmXmXmXmXmXmXmXmX` ) mXmXmXmXmXmXmXmXmXmXmXmXmXmXmXmXmXmXmXmX",
"mXmXmXmXmXmXmXmXmXmXmXmXmXmXmXmXmXmXmXmXmXmXmXmXmXmXmXmXmXmXmXmXmXmXmXmXmXmXmXmXmXmXmXmXmXmXmXmXmXmXmXmXmXmXmXmXmXmXmXmXmXmXmXmXmXmXmXmXmXmXmXmXmXmXmXmXmXmX"
};
