/* XPM */
static char *result[] = {
/* columns rows colors chars-per-pixel */
"78 100 237 2 ",
"   c #3E3D3A",
".  c #3E3C37",
"X  c #7A1F07",
"o  c #57380B",
"O  c #5A3A0B",
"+  c #583807",
"@  c #593C11",
"#  c #7D260E",
"$  c #7E280F",
"%  c #7B2509",
"&  c #613E0D",
"*  c #66370B",
"=  c #7F2911",
"-  c #7E2913",
";  c #703613",
":  c #413F3A",
">  c #453C34",
",  c #562F23",
"<  c #64420E",
"1  c #69450F",
"2  c #6B4611",
"3  c #6E4911",
"4  c #664615",
"5  c #744C12",
"6  c #764D16",
"7  c #7B5214",
"8  c #78531B",
"9  c #75480F",
"0  c #43403B",
"q  c #4D4538",
"w  c #544A3B",
"e  c #5D513F",
"r  c #664E27",
"t  c #765524",
"y  c #6E5634",
"u  c #79613B",
"i  c #4C4841",
"p  c #514D46",
"a  c #58544C",
"s  c #5C5953",
"d  c #675942",
"f  c #695E4C",
"g  c #766549",
"h  c #726458",
"j  c #73706C",
"k  c #831F04",
"l  c #931C04",
"z  c #9D1E04",
"x  c #A31D03",
"c  c #A91D02",
"v  c #A71701",
"b  c #84250C",
"n  c #8B250C",
"m  c #832A0E",
"M  c #8A2A0E",
"N  c #892106",
"B  c #9B2105",
"V  c #972709",
"C  c #822C12",
"Z  c #8B2C12",
"A  c #873615",
"S  c #933B1A",
"D  c #993A0E",
"F  c #A22206",
"G  c #AA2708",
"H  c #B42304",
"J  c #BA2605",
"K  c #BB2B08",
"L  c #A5380C",
"P  c #AE3314",
"I  c #8B3A24",
"U  c #C32A07",
"Y  c #CA2E08",
"T  c #C62E08",
"R  c #CE320A",
"E  c #CA350D",
"W  c #D0320A",
"Q  c #D0380F",
"!  c #CE3A13",
"~  c #894815",
"^  c #954A1A",
"/  c #825515",
"(  c #855916",
")  c #8B5C16",
"_  c #845A1A",
"`  c #8C5E19",
"'  c #8C5617",
"]  c #955D1B",
"[  c #84560B",
"{  c #A7481C",
"}  c #B04F1E",
"|  c #8E601A",
" . c #8F6014",
".. c #936314",
"X. c #93631B",
"o. c #99661B",
"O. c #9C6A1D",
"+. c #9B6818",
"@. c #A26E1E",
"#. c #A26818",
"$. c #A6711E",
"%. c #95482A",
"&. c #9A5327",
"*. c #8F532A",
"=. c #A45826",
"-. c #B95822",
";. c #A35935",
":. c #B65032",
">. c #8A6124",
",. c #9C6C23",
"<. c #966926",
"1. c #866636",
"2. c #987239",
"3. c #976E32",
"4. c #A26F21",
"5. c #A9642C",
"6. c #A57123",
"7. c #AA7525",
"8. c #A4742A",
"9. c #AD792C",
"0. c #AA772A",
"q. c #B27D2D",
"w. c #AC6738",
"e. c #A27532",
"r. c #AC7B32",
"t. c #A67B38",
"y. c #B17E33",
"u. c #B97936",
"i. c #BE673E",
"p. c #D25531",
"a. c #C65022",
"s. c #9C5845",
"d. c #B05D4B",
"f. c #997948",
"g. c #8E7350",
"h. c #A96B5A",
"j. c #AF7B4A",
"k. c #987A71",
"l. c #C5674E",
"z. c #B58233",
"x. c #BA8534",
"c. c #BE8936",
"v. c #B4843B",
"b. c #BA863A",
"n. c #BD893B",
"m. c #B58233",
"M. c #C38D3C",
"N. c #C4863A",
"B. c #C6903E",
"V. c #C9923E",
"C. c #9D845E",
"Z. c #AA8346",
"A. c #B38641",
"S. c #BC8B43",
"D. c #B88B49",
"F. c #A68654",
"G. c #BA8B54",
"H. c #BB9459",
"J. c #BF914C",
"K. c #9B8667",
"L. c #938A7B",
"P. c #B58477",
"I. c #B09264",
"U. c #C48E41",
"Y. c #C78949",
"T. c #C69141",
"R. c #CB9543",
"E. c #CF9846",
"W. c #CD994B",
"Q. c #C5954C",
"!. c #D19A46",
"~. c #D39C4A",
"^. c #CC9B52",
"/. c #C59858",
"(. c #D19F53",
"). c #C88E5E",
"_. c #D6A254",
"`. c #D4A45C",
"'. c #D9A65B",
"]. c #DAA658",
"[. c #D2A155",
"{. c #C99765",
"}. c #C89572",
"|. c #CDA364",
" X c #CCA56C",
".X c #D4A662",
"XX c #DBAB64",
"oX c #D4AA6B",
"OX c #DCAE69",
"+X c #D4A46B",
"@X c #DEB06C",
"#X c #C8A878",
"$X c #D7AB73",
"%X c #DCB274",
"&X c #DDB57B",
"*X c #D7B076",
"=X c #E1B574",
"-X c #E2B97C",
";X c #E1B778",
":X c #E0A16D",
">X c #8F8D8A",
",X c #908F8C",
"<X c #938D80",
"1X c #92918E",
"2X c #9C968E",
"3X c #9B9895",
"4X c #AF9890",
"5X c #A5A29E",
"6X c #B0A39E",
"7X c #AAA7A1",
"8X c #B9B4AD",
"9X c #BEB9B2",
"0X c #BBB6B0",
"qX c #C9998A",
"wX c #DAB685",
"eX c #CAAF96",
"rX c #E4BD83",
"tX c #E1BB85",
"yX c #EBAC9C",
"uX c #C1BBB4",
"iX c #C3BEB8",
"pX c #C7B3A5",
"aX c #E7C189",
"sX c #E9C38B",
"dX c #E6C087",
"fX c #E7C696",
"gX c #D1C4B2",
"hX c #E9CDA4",
"jX c #E8D5B7",
"kX c #D8CBC4",
"lX c #D2CFCC",
"zX c #E9DCC9",
"xX c #E3D6CF",
"cX c #E8E2DB",
"vX c #F0E4D0",
"bX c #F4F2EF",
"nX c None",
/* pixels */
"nXnXnXnXnXnXnXnXnXnXnXnXnXnXnXnXnXnXnXnXnXnXnXnXnXnXnXnXnXnXnXnXnXnXnXnXnXnXnXnXnXnXnXnXnXnXnXnXnXnXnXnXnXnXnXnXnXnXnXnXnXnXnXnXnXnXnXnXnXnXnXnXnXnXnXnXnXnX",
"nXnXnXnXnXnXnXnXnXnXnXnXnXnXnXnXnXnXnXnXnXnXnXnXnXnXnXnXnXnXnXU R R nXnXnXnXnXnXnXnXnXnXnXnXnXnXnXnXnXnXnXnXnXnXnXnXnXnXnXnXnXnXnXnXnXnXnXnXnXnXnXnXnXnXnXnX",
"nXnXnXnXnXnXnXnXnXnXnXnXnXnXnXnXnXnXnXnXnXnXnXnXnXnXnXnXnXnXn d.p.H J nXnXnXnXnXnXnXnXnXnXnXnXnXnXnXnXnXnXnXnXnXnXnXnXnXnXnXnXnXnXnXnXnXnXnXnXnXnXnXnXnXnXnX",
"nXnXnXnXnXnXnXnXnXnXnXnXnXnXnXnXnXnXnXnXnXnXnXnXnXnXnXnXnXm b G.$X:.J R nXnXnXnXnXnXnXnXnXnXnXnXnXnXnXnXnXnXnXnXnXnXnXnXnXnXnXnXnXnXnXnXnXnXnXnXnXnXnXnXnXnX",
"nXnXnXnXnXnXnXnXnXnXnXnXnXnXnXnXnXnXnXnXnXnXnXnXnXnXnXnX# $ 5.W.;Xl.c H U nXnXnXnXnXnXnXnXnXnXnXnXnXnXnXnXnXnXnXnXnXnXnXnXnXnXnXnXnXnXnXnXnXnXnXnXnXnXnXnXnX",
"nXnXnXnXnXnXnXnXnXnXnXnXnXnXnXnXnXnXnXnXnXnXnXnXnXnXnXnX# ~ x.~.@X%Xd.z J W R R nXnXnXnXnXnXnXnXnXnXnXnXnXnXnXnXnXnXnXnXnXnXnXnXnXnXnXnXnXnXnXnXnXnXnXnXnXnX",
"nXnXnXnXnXnXnXnXnXnXnXnXnXnXnXnXnXnXnXnXnXnXnXnXnXnXnX# # ~ n.~.@XsXj.b F J U Y R nXnXnXnXnXnXnXnXnXnXnXnXnXnXnXnXnXnXnXnXnXnXnXnXnXnXnXnXnXnXnXnXnXnXnXnXnX",
"nXnXnXnXnXnXnXnXnXnXnXnXnXnXnXnXnXnXnXnXnXnXnXnXnXnXnXm $ ~ n.~.].;X$X%.b B H W R nXnXnXnXnXnXnXnXnXnXnXnXnXnXnXnXnXnXnXnXnXnXnXnXnXnXnXnXnXnXnXnXnXnXnXnXnX",
"nXnXnXnXnXnXnXnXnXnXnXnXnXnXnXnXnXnXnXnXnXnXnXnXnXnXnX* * / 8.B.~.@XsXj.# l c U R R nXnXnXnXnXnXnXnXnXnXnXnXnXnXnXnXnXnXnXnXnXnXnXnXnXnXnXnXnXnXnXnXnXnXnXnX",
"nXnXnXnXnXnXnXnXnXnXnXnXnXnXnXnXnXnXnXnXnXnXnXnXnXnXnXo O 7 ) x.~.].=X{.%.b z H R R nXnXnXnXnXnXnXnXnXnXnXnXnXnXnXnXnXnXnXnXnXnXnXnXnXnXnXnXnXnXnXnXnXnXnXnX",
"nX6.Q.{.%XnXnXnXnXnXnXnXnXnXnXnXnXnXnXnXnXnXnXnXnXnXnX& O 3 / 8.x.R.XXsXj.# n c U W W nXnXnXnXnXnXnXnXnXnXnXnXnXnXnXnXnXnXnXnXnXnXnXnXnXnXnXnXnXnXnXnXnXnXnX",
"nXO.@.@.Q.&XsXnXnXnXnXnXnXnXnXnXnXnXnXnXnXnXnXnXnX` ) 2 O O 7 X.#.q.~.rX).%.n z H Y W Q nXnXnXnXnXnXnXnXnXnXnXnXnXnXnXnXnXnXnXnXnXnXnXnXnXnXnXnXnXnXnXnXnXnX",
"nXnX$.$.4.|.sX=XnXnXnXnXnXnXnXnXnXnXnXnXnXnXnXnXX.` ` 7 O o 7 O.4.@.7..XsX+X;.X z U W W W W nXnXnXnXnXnXnXnXnXnXnXnXnXnXnXnXnXnXnXnXnXnXnXnXnXnXnXnXnXnXnXnX",
"nXnXO.@.$.W.=XW.nXnXnXnXnXnXnXnXnXnXnXnXnX` ( 7 6 ` ` ` < 1 ` O.@.7.9.n.&XsX+Xw.;.F W W W W W nXnXnXnXnXnXnXnXnXnXnXnXnXnXnXnXnXnXnXnXnXnXnXnXnXnXnXnXnXnXnX",
"nXnX,.$.@.m.N.x.nXnXnXnXnXnXnXnXnXnXnXnXnXnX/ & o 5 ( ` 5 ( X.@.@.x.B.7.A.*XdXsX{.Z G K W Y R W nXnXnXnXnXnXnXnXnXnXnXnXnXnXnXnXnXnXnXnXnXnXnXnXnXnXnXnXnXnX",
"nXnXnXO.@.$.7.M._.nXnXnXnXnXnXnXnXnXnXnXnXnX' 1 o o 5 7 ( ` ` o.@.x.~.N.7.Q.sXsX{.- b b K K Y W Q R R nXnXnXnXnXnXnXnXnXnXnXnXnXnXnXnXnXnXnXnXnXnXnXnXnXnXnX",
"nXnXnXnXnXnXx.B.E.XXnXnXnXnXnXnXnXnXnXnXnXnX' ( 2 O o o | X.` ` +.x.~.!.x.v.%XsX$X%.- # - n T W Y W W Y R nXnXnXnXnXnXnXnXnXnXnXnXnXnXnXnXnXnXnXnXnXnXnXnXnX",
"nXnXnXnXnXnXnX@.M.XX@XnXnXnXnXnXnXnXnXnXnXnXnX' ` < 6 8 n.r.| ` X.N.~.~.n.7.Q.aXwXj.C - # C K ! p.! Y J J Y nXnXnXnXnXnXnXnXnXnXnXnXnXnXnXnXnXnXnXnXnXnXnXnX",
"nXnXnXnXnXnXnXnXx.E.~._.nXnXnXnXnXnXnXnXnXnXnX/ / < 3.T.~.!.9.X.+.m.R.!.~.!.XXsX}.Z b b b C M ! yXp.W nXF U nXnXnXnXnXnXnXnXnXnXnXnXnXnXnXnXnXnXnXnXnXnXnXnX",
"nXnXnXnXnXnXnXnX4.c.!.XXrXnXnXnXnXnXnXnXnXnXnXO O o 1 e.W.R.W.9.4.$.m.~.~.!.'.wXj.C C M G b b E ! W W nXH U nXnXnXnXnXnXnXnXnXnXnXnXnXnXnXnXnXnXnXnXnXnXnXnX",
"nXnXnXnXnXnXnXnXnX7.n.R.XX%XnXnXnXnXnXnXnXnXO o o O 7 _ r.8.x.E.E.n.n.~.T.r.A.).I # # C b b b K W W W nXQ E nXnXnXnXnXnXnXnXnXnXnXnXnXnXnXnXnXnXnXnXnXnXnXnX",
"nXnXnXnXnXnXnXnXnXnXnXc.R.~.~.nXnXnXnXnXnXU.8 r @ o / q.>.< _ n.~.XXaX/._ 1 <.u.Z - # # C z C n U W W nXnXnXnXnXnXnXnXnXnXnXnXnXnXnXnXnXnXnXnXnXnXnXnXnXnXnX",
"nXnXnXnXnXnXnXnXnXnXnXnX7.z.`.-XnXnXnXnXnX!.^.pXu O 7 | r.8 & 8.!.XXdXdXf.` y.r.w.C # # - b C z H Y W W nXnXnXnXnXnXnXnXnXnXnXnXnXnXnXnXnXnXnXnXnXnXnXnXnXnX",
"nXnXnXnXnXnXnXnXnXnXnXnXnXq.!..XrXnXnXnXnXnX_.XX.Xt O < _ ` / ,.M.!.OXsXG.<.D.OXu.# # - b z b n K Y J T Q nXnXnXnXnXnXnXnXnXnXnXnXnXnXnXnXnXnXnXnXnXnXnXnXnX",
"nXnXnXnXnXnXnXnXnXnXnXnXnXnX7.c.XXdXnXnXnXnXnX!.'.|.t o O / ` | @.x..XrXwX*X&X).I I # # n J x C F H U R W nXnXnXnXnXnXnXnXnXnXnXnXnXnXnXnXnXnXnXnXnXnXnXnXnX",
"nXnXnXnXnXnXnXnXnXnXnXnXnXnXnXq.].rXrXnXnXnXnX(.=XrX1.@ < O O 7 X.( 3 F.rXrX-Xj.s.pXA - M Y T n b F U J U nXnXnXnXnXnXnXnXnXnXnXnXnXnXnXnXnXnXnXnXnXnXnXnXnX",
"nXnXnXnXnXnXnXnXnXnXnXnXnXnXnXnXb.(.].nXnXnXaX-X'.;X*X XJ.6 O O 1 O o 4 t Z.fXhXwXtX).C Z ! E Z B n K Y Y nXnXnXnXnXnXnXnXnXnXnXnXnXnXnXnXnXnXnXnXnXnXnXnXnX",
"nXnXnXnXnXnXnXnXnXnXnXnXnXnXnXnXnX~.!._.rXrXrXrX_._.].-X-X1.o o o 3 ( 1 1.|.%XfXaXrXQ.8.{.:X:X).P x Y W J nXnXnXnXnXnXnXnXnXnXnXnXnXnXnXnXnXnXnXnXnXnXnXnXnX",
"nXnXnXnXnXnXnXnXnXnXnXnXnXnXdXaXdX;X;XoXt.2.t.&X_.!.~.=XsX Xt o 2 ( ) / <.8.3.v.'.W.e.oXsXrX&X;.U T Y W H nXnXnXnXnXnXnXnXnXnXnXnXnXnXnXnXnXnXnXnXnXnXnXnXnX",
"nXnXnXnXnXnXnXnXnXnXnXnXnX9.S./.aXaXaX$XX.) | e.,.8.U.].rXsXt.& < 2 1 7 8.b.n.M.T.,.3.rXsXtX;.F T W R J G nXnXnXnXnXnXnXnXnXnXnXnXnXnXnXnXnXnXnXnXnXnXnXnXnX",
"nXnXnXnXnXnXnXnXnXnXnXnXnX6.@.9.S.S.Q.&X/.,.+.o.` ` 4.8.^.-X^.<.1 o o >.R.~.M.0.,.,. XrXtX;.V c J Y W K nXnXnXnXnXnXnXnXnXnXnXnXnXnXnXnXnXnXnXnXnXnXnXnXnXnX",
"nXnXnXnXnXnXnXnXnXnXnXnXnXnXnXnX6.@.7.J.S.6.@.@.,.` ) ` 8.oXXXM.<.< < r.~.M.<.` ) <.Y.D.;.M x c J Y W nXnXnXnXnXnXnXnXnXnXnXnXnXnXnXnXnXnXnXnXnXnXnXnXnXnXnX",
"nXnXnXnXnXnXnXnXnXnXnXnXnXnXnXnXnX,.7 5 7 O.O.+.+.X.|  .7 Z.Q.c.9.e.r.B.M.r.z.8.( 7 O.] m B J K R W nXnXnXnXnXnXnXnXnXnXnXnXnXnXnXnXnXnXnXnXnXnXnXnXnXnXnXnX",
"nXnXnXnXnXnXnXnXnXnXnXnXnXnXnXnXnXnX@ o & 3 5 7 | 7 |  ...D.v.7 Z.;X'.XXD.o.0.,.) 7 nXm b F Y W nXnXnXnXnXnXnXnXnXnXnXnXnXnXnXnXnXnXnXnXnXnXnXnXnXnXnXnXnXnX",
"nXnXnXnXnXnXnXnXnXnXnXnXnXnXnXnXnXW.<.& o o + 3 3 3 7 .. .Z.m.+ F.sX-X-X.X8.` 7 2 3 nXnXM J R nXnXnXnXnXnXnXnXnXnXnXnXnXnXnXnXnXnXnXnXnXnXnXnXnXnXnXnXnXnXnX",
"nXnXnXnXnXnXnXnXnXnXnXnXnXnXnXnX8 x.n.& o O + + o o 1 3 3 1 7 5 G.sXsXaX@Xz.,.<.O nXnXnXF E W nXnXnXnXnXnXnXnXnXnXnXnXnXnXnXnXnXnXnXnXnXnXnXnXnXnXnXnXnXnXnX",
"nXnXnXnXnXnXnXnXnXnXnXnXnXnXnXnX< X.m.>.< + + 5 5 @ o 1 >.Z.t Z.OXsXaXsX@XW.Q.b.nXnXnXnXnXE W R nXnXnXnXnXnXnXnXnXnXnXnXnXnXnXnXnXnXnXnXnXnXnXnXnXnXnXnXnXnX",
"nXnXnXnXnXnXnXnXnXnXnXnXnXnXnX@ 1 +.7.J.8 + & .. .5 5 7 B.-Xv.v.*XsXaX;XW.W.XXW.nXnXnXnXnXnXnXW W nXnXnXnXnXnXnXnXnXnXnXnXnXnXnXnXnXnXnXnXnXnXnXnXnXnXnXnXnX",
"nXnXnXnXnXnXnXnXnXnXnXnXnXnXnX< 7 @.7.c.B. .& 7 7  .| | m.|.D...t.%XaXOXx.z.~.E.nXnXnXnXnXnXnXnXnXnXnXnXnXnXnXnXnXnXnXnXnXnXnXnXnXnXnXnXnXnXnXnXnXnXnXnXnXnX",
"nXnXnXnXnXnXnXnXnXnXnXnXnXnX5 _ 9.@.$.x.!.E.C.I.+. . . . .M.~.m.X.G.sXOXm.8.B.E.nXnXnXnXnXnXnXnXnXnXnXnXnXnXnXnXnXnXnXnXnXnXnXnXnXnXnXnXnXnXnXnXnXnXnXnXnXnX",
"nXnXnXnXnXnXnXnXnXnXnXnXnXnX) 8.R.v.n.E.!.].zXcXZ...m.m.7 m.E.~.9.G.dX[.8.| v.W.nXnXnXnXnXnXnXnXnXnXnXnXnXnXnXnXnXnXnXnXnXnXnXnXnXnXnXnXnXnXnXnXnXnXnXnXnXnX",
"nXnXnXnXnXnXnXnXnXnXnXnXnXO.X.8._.&X-XOX&X%X-XjX3.c.V.E.m. .c.~.9.A.[.8.o.b.V.n.nXnXnXnXnXnXnXnXnXnXnXnXnXnXnXnXnXnXnXnXnXnXnXnXnXnXnXnXnXnXnXnXnXnXnXnXnXnX",
"nXnXnXnXnXnXnXnXnXnXnXnXnX$.O.,.B.'.dXhXbXzXXXXXZ.<.m.T.E.+.m.!.0.m.m._ r.T.8.3.dXsXnXnXnXnXnXnXnXnXnXnXnXnXnXnXnXnXnXnXnXnXnXnXnXnXnXnXnXnXnXnXnXnXnXnXnXnX",
"nXnXnXnXnXnXnXnXnXnXnXnXnX$.O.| 6.].&XfXbXbX^.~.oX3.< m.!.m.m.V.r.9.z.) v.n._ F.dXnXnXnXnXnXnXnXnXnXnXnXnXnXnXnXnXnXnXnXnXnXnXnXnXnXnXnXnXnXnXnXnXnXnXnXnXnX",
"nXnXnXnXnXnXnXnXnXnXnXnXnX@.@.O.6.B.].fXbXzXe.x.~.OX2.,.E.6.8.^.A.S.R.r./.H.r.%X;XnXnXnXnXnXnXnXnXnXnXnXnXnXnXnXnXnXnXnXnXnXnXnXnXnXnXnXnXnXnXnXnXnXnXnXnXnX",
"nXnXnXnXnXnXnXnXnXnXnXnXnX@.@.$.O.,.W.fXcXcX3...c.~.oXZ.m.O./.-XoX&XdX&X%XH.v.(.~.nXnXnXnXnXnXnXnXnXnXnXnXnXnXnXnXnXnXnXnXnXnXnXnXnXnXnXnXnXnXnXnXnXnXnXnXnX",
"nXnXnXnXnXnXnXnXnXnXnXnXnXnXnX$.O.| e.;XhXzX,. ...c.~.@X1.7 H.n.$.Q.rXXXz.Z.XXE.T.nXnXnXnXnXnXnXnXnXnXnXnXnXnXnXnXnXnXnXnXnXnXnXnXnXnXnXnXnXnXnXnXnXnXnXnXnX",
"nXnXnXnXnXnXnXnXnXnXnXnXnXnXnX@.@.O.,.W.aXlXm. . ...n.%X&Xm.| O.@.x.E.E.m.v.~.z.] nXnXnXnXnXnXnXnXnXnXnXnXnXnXnXnXnXnXnXnXnXnXnXnXnXnXnXnXnXnXnXnXnXnXnXnXnX",
"nXnXnXnXnXnXnXnXnXnXnXnXnXnXnXnX@.@.X.O..XzXm.+. . ...n.&Xv.r 8 +.$.6.<.G.XXz.] ( nXnXnXnXnXnXnXnXnXnXnXnXnXnXnXnXnXnXnXnXnXnXnXnXnXnXnXnXnXnXnXnXnXnXnXnXnX",
"nXnXnXnXnXnXnXnXnXnXnXnXnXnXnXnX,.@.o. .v.gX9.@.+... .+..X&Xg r  .+.O.u C.H.o.X.nXnXnXnXnXnXnXnXnXnXnXnXnXnXnXnXnXnXnXnXnXnXnXnXnXnXnXnXnXnXnXnXnXnXnXnXnXnX",
"nXnXnXnXnXnXnXnXnXnXnXnXnXnXnXnXo.` ..+.,.Q.7.$.$.+... .B.%Xg r  ...t g.H.<.7.T.nXnXnXnXnXnXnXnXnXnXnXnXnXnXnXnXnXnXnXnXnXnXnXnXnXnXnXnXnXnXnXnXnXnXnXnXnXnX",
"nXnXnXnXnXnXnXnXnXnXnXnXnXnXnXnXz.X.) ,.B.~.V.7.$.$.+...M._.g 0 1.0.r K.rX`.E.~.~.nXnXnXnXnXnXnXnXnXnXnXnXnXnXnXnXnXnXnXnXnXnXnXnXnXnXnXnXnXnXnXnXnXnXnXnXnX",
"nXnXnXnXnXnXnXnXnXnXnXnXnXnXnXnXE.b.| ,.W.!.E.7.$.@.#...M.~.u   p e q C.=X_.!.!.~.~.nXnXnXnXnXnXnXnXnXnXnXnXnXnXnXnXnXnXnXnXnXnXnXnXnXnXnXnXnXnXnXnXnXnXnXnX",
"nXnXnXnXnXnXnXnXnXnXnXnXnXnXnXnX<.R.M.M.R.0.R.7.@.$.@.@.B.OXg . 0 0 y Q._.~.~.~.~.R.nXnXnXnXnXnXnXnXnXnXnXnXnXnXnXnXnXnXnXnXnXnXnXnXnXnXnXnXnXnXnXnXnXnXnXnX",
"nXnXnXnXnXnXnXnXnXnXnXnXnXnXnXnX@ >.R.~.B.,.R.M.6.$.@.$.`.XXg . a a q f.~.~.~.~.R.q.!.nXnXnXnXnXnXnXnXnXnXnXnXnXnXnXnXnXnXnXnXnXnXnXnXnXnXnXnXnXnXnXnXnXnXnX",
"nXnXnXnXnXnXnXnXnXnXnXnXnXnXnXnXnX2 0.!.E.v.>.U.B.7.@.6.oXg.q . s s p F.!.~.!.~.M.0.~.rXnXnXnXnXnXnXnXnXnXnXnXnXnXnXnXnXnXnXnXnXnXnXnXnXnXnXnXnXnXnXnXnXnXnX",
"nXnXnXnXnXnXnXnXnXnXnXnXnXnXnXnXnXnX,.M.8.,._ 0.E.7.@.c.^.d .   i p p a t.~.~.T.9.nXz.'.rXnXnXnXnXnXnXnXnXnXnXnXnXnXnXnXnXnXnXnXnXnXnXnXnXnXnXnXnXnXnXnXnXnX",
"nXnXnXnXnXnXnXnXnXnXnXnXnXnXnXnXnXnX,.,.X.O.+.7.R.B.7.u g w 0 0 . a a i f.~.T.n.|.nXnXx..XrXnXnXnXnXnXnXnXnXnXnXnXnXnXnXnXnXnXnXnXnXnXnXnXnXnXnXnXnXnXnXnXnX",
"nXnXnXnXnXnXnXnXnXnXnXnXnXnXnXnXnXnXX.` o.@.@.6.m.R.B.y . 0 0 0   i i i g.V.0.b.sXnXnX0.~.XX-XnXnXnXnXnXnXnXnXnXnXnXnXnXnXnXnXnXnXnXnXnXnXnXnXnXnXnXnXnXnXnX",
"nXnXnXnXnXnXnXnXnXnXnXnXnXnXnXnXnX6.O.o.@.@.@.@.$.q.E.d : : 0 0 0 0 p g v.n.@.A.dXnXnXr.n.!.XXrXnXnXnXnXnXnXnXnXiXuXnXnXnXnXnXnXnXnXnXnXnXnXnXnXnXnXnXnXnXnX",
"nXnXnXnXnXnXnXnXnXnXnXnXnXnXnXnXnX@.4.x.m.$.@.@.@.$.M.u : : 0 0 0 0 p F.V.0.O.A.rXnXnXnXy.!.~.OXnXnXnXnXnXnXnX{.eXuXuXnXnXnXnXnXnXnXnXnXnXnXnXnXnXnXnXnXnXnX",
"nXnXnXnXnXnXnXnXnXnXnXnXnXnXnXnXnXo._ z.V.6.@.@.@.@.2.p : : : 0 0 0 0 d 3...@.b.aXaXnXnXnXM.!.!.nXnXnXnXnXnXq.(.eX9X9XnXnXnXnXnXnXnXnXnXnXnXnXnXnXnXnXnXnXnX",
"nXnXnXnXnXnXnXnXnXnXnXnXnXnXnXnXo.6 o _ R.c.$.@.@.@.r i 0 0 0 . > : 0 0 r +.m. XaXrXnXnXnXnXx.E.~.E.nXnXnXq.R.=XfXnXnXnXnXnXnXnXnXnXnXnXnXnXnXnXnXnXnXnXnXnX",
"nXnXnXnXnXnXnXnXnXnXnXnXnXnXnXnX` 5 5 _ z.!.N.y.7.S.a   0 0 0 0 . . 0 0 u q.J.*X/.nXnXnXnXnXnXR.~.~.~.nXz.R.].-XnXnXnXnXnXnXnXnXnXnXnXnXnXnXnXnXnXnXnXnXnXnX",
"nXnXnXnXnXnXnXnXnXnXnXnXnXnXnXO./ 7 o.O.4.R.b.E.M.%XK.d : : : : : : 0   g.V.S.A.` nXnXnXnXnXnXnXx.!.~.H.Q.].rXnXnXnXnXnXnXnXnXnXnXnXnXnXnXnXnXnXnXnXnXnXnXnX",
"nXnXnXnXnXnXnXnXnXnXnXnXnXnXnXo.` O.@.6.7.z.O.z.n..X-Xg., > j s s s > y j.T.8.8.Q.nXnXnXnXnXnXnX4.c.E.eXeXOXdXnXnXnXnXnXnXnXnXnXnXnXnXnXnXnXnXnXnXnXnXnXnXnX",
"nXnXnXnXnXnXnXnXnXnXnXnXnXnXnX6.7.@.@.@.@.@.@.#.' B.;X;.k , 6XnXnXh ; 5.V.8.` t.rXaXnXnXnXnXnXnXnXo.x.#X8X X~.@XnXnXnXnXnXnXnXnXnXnXnXnXnXnXnXnXnXnXnXnXnXnX",
"nXnXnXnXnXnXnXnXnXnXnXnXnXnXnX8.R.9.@.@.@.$.@.O.A w..Xw.b # h.nXnXI Z u.q.X.o.z.-XaXnXnXnXnXnXnXnXX.@.x.#X.X].-XnXnXnXnXnXnXnXnXnXnXnXnXnXnXnXnXnXnXnXnXnXnX",
"nXnXnXnXnXnXnXnXnXnXnXnXnXnXnX8 n.T.9.@.@.@.$.O.A b 5.R.=.n eXnXnX%.%.u.5.] @.q.`.aXnXnXnXnXnXnX .O.@.$.c.!.].;XjXnXnXnXnXnXnXnXnXnXnXnXnXnXnXnXnXnXnXnXnXnX",
"nXnXnXnXnXnXnXnXnXnXnXnXnXnX7 O 8 !.R.0.@.@.9.=.Z x V 5.u.^ qXnXnX;.b $ $ ~ @.x.`.*XnXnXnXnXnXX.| @.@.$.$.M.~.~.jXbXnXnXnXnXnXnXnXnXnXnXnXnXnXnXnXnXnXnXnXnX",
"nXnXnXnXnXnXnXnXnXnXnXnXnX` 5 7 _ R.W.M.7.y.+XI z z c V m m h.nXnXs.M Z m ~ x.(./.8.nXnXnXnXX.@.O.O.nXnX$.c.!.!.fXzXvXnXnXnXnXnXnXnXnXnXnXnXnXnXnXnXnXnXnXnX",
"nXnXnXnXnXnXnXnXnXnXnXnXnXX.| O.` 4.z.,.M.~.*XS L * n x k = nXnXnX% =.-.l =.R.x.,.y.nXnXnXo.@.O.nXnXnXnXnX$.c.!._.W.oXwXaXaXnXnXnXnXnXnXnXnXnXnXnXnXnXnXnXnX",
"nXnXnXnXnXnXnXnXnXnXnXnXnXO.o.@.O.X.X.X.] U.&XP ^ 9 ; l N m nXnXnXk { -.z =.y.o.v.%XnXnXo.@.@.4.nXnXnXnXnXnX,.m.B.x.F.#XrXaXaXnXnXnXnXnXnXnXnXnXnXnXnXnXnXnX",
"nXnXnXnXnXnXnXnXnXnXnXnXnXnXO.@.@.@.@.] - %.{.%.C ) 9 $ C nXnXnX:.l V G x D o.#.9.'.*XK.6.@.6.nXnXnXnXnXnXnX& < | n.W.[.*XfXjXnXnXnXnXnXnXnXnXnXnXnXnXnXnXnX",
"nXnXnXnXnXnXnXnXnXnXnXnXnX5 X.@.7.7.@.] $ A S. X8 ] D n C nXnXnXl.l 5.a.l ~ 7.7.n.oX2.L.2.0.nXnXnXnXnXnXnXnXo t K.I.V.wXlXlXbXnXnXnXnXnXnXnXnXnXnXnXnXnXnXnX",
"nXnXnXnXnXnXnXnXnXnXnXnXnX1 ) q.R.M.7.,.$ $ 6 {.8 X.#.A m P.nXnXd.l 5.-.l =.!.R.^.|.2.L.<X<XnXnXnXnXnXnXnXnX< g.L.Z.u 1XcXlXiXlXnXnXnXnXnXnXnXnXnXnXnXnXnXnX",
"nXnXnXnXnXnXnXnXnXnXnXnX5 & 5 X.q.R.~.).Z V O 4 X.@.L n m }.nXnXh.k =.-.v } ~.b.<.,.8.nXnXnXnXnXnXnXnXnXnXnXO.,.3.u a >XxXlX9X9XgXnXnXnXnXnXnXnXnXnXnXnXnXnX",
"nXnXnXnXnXnXnXnXnXnXnX5 7 X.X.| X.8._.{.Z B * o X.#.L N $ k.nXnXh.% V K B =.n.X...r.*XnXnXnXnXnXnXnXnXnXnXnX@.$.$.2.L.s 3XiX3X5X0X9XnXnXnXnXnXnXnXnXnXnXnXnX",
"nXnXnXnXnXnXnXnXnXnX` / X.@.@.@.o.X.r.{.Z B * O 1 ` L l b I 4XnXs.b } N.=.~ o.| O.v.rXnXnXnXnXnXnXnXnXnXnXnXnXO.@.nXa p >XiXiX1X7X9XnXnXnXnXnXnXnXnXnXnXnXnX",
"nXnXnXnXnXnXnXnXnXnXA ~ X.@.@.q.T.r.&.{.Z B & _ < * B N N b qXnXG z -.w.A A X.@.@.r.&XnXnXnXnXnXnXnXnXnXnXnXnXnXnXnXnXs j 1X8X9X3X9X9XnXnXnXnXnXnXnXnXnXnXnX",
"nXnXnXnXnXnXnXnXnX- $ ~ ~ ~ 9.R.'./.S P F B 2 y.X.V x x M P.nXnXc v G A # &.q.@.q.u.%.A nXnXnXnXnXnXnXnXnXnXnXnXnXnXnXs j >X7XiX7X5XiXnXnXnXnXnXnXnXnXnXnXnX",
"nXnXnXnXnXnXnXnX= $ # M F D O.n._.XXY.G x Z u.R.6.L c B 4XxXnXnXnXv l - &.U.M.0.V.u.C nXnXnXnXnXnXnXnXnXnXnXnXnXnXnXnXnXs j 1X7X9X7X7XiXnXnXnXnXnXnXnXnXnXnX",
"nXnXnXnXnXnXnXnXnXC n x H V A ] N.'.tXqXG S R.R.O.G G C ;.kXnXnXkXl.z ;.^.M.x.u.} { P nXnXnXnXnXnXnXnXnXnXnXnXnXnXnXnXnXnXs j 3X5X2X3X9XiXnXnXnXnXnXnXnXnXnX",
"nXnXnXnXnXnXnX$ = = n z G M b V -.].sXeX; ; U.9.o.G G V k s.nXnXqXqX}.$X@XR.u.L z F Y nXnXnXnXnXnXnXnXnXnXnXnXnXnXnXnXnXnXs s j ,X,X1X5X9XnXnXnXnXnXnXnXnXnX",
"nXnXnXnXnXnXnXnXnX$ $ n F x x x L M.dX Xr H.oX,.nXnXH G nXh.nXbXpXkXvXsX@Xu.S n c H R ! nXnXnXnXnXnXnXnXnXnXnXnXnXnXnXnXnXnXa h ,X,X,X1X3XnXnXnXnXnXnXnXnXnX",
"nXnXnXnXnXnXnXnXnX= # z c nXc c G { Q.&XH.oX;Xe.nXnXnXnXnXnXnXnXnXzXfX=Xj.S b z c z F Q nXnXnXnXnXnXnXnXnXnXnXnXnXnXnXnXnXnXnXnX,X,X,X,X>XnXnXnXnXnXnXnXnXnX",
"nXnXnXnXnXnXnXnXnX$ nXnXnXnXnXV G F ^ G.-X_.;X.XnXnXnXnXnXnXnXnXnXnX|.Q.5.b M c x nXnXnXnXnXnXnXnXnXnXnXnXnXnXnXnXnXnXnXnXnXnXnXnX1X,X,X,XnXnXnXnXnXnXnXnXnX",
"nXnXnXnXnXnXnXnXnXnXnXnXnXnXnXC nXB m ,..X_.OXdXnXnXnXnXnXnXnXnXnXnXnXc.5.% # k nXnXnXnXnXnXnXnXnXnXnXnXnXnXnXnXnXnXnXnXnXnXnXnXnXnXnX>X,X1XnXnXnXnXnXnXnXnX",
"nXnXnXnXnXnXnXnXnXnXnXnXnXnXnXnXnXb ; <.!.XX(.-XnXnXnXnXnXnXnXnXnXnXnXc.u.5.%.X nXnXnXnXnXnXnXnXnXnXnXnXnXnXnXnXnXnXnXnXnXnXnXnXnXnXnXnX,X>X1X2XnXnXnXnXnXnX",
"nXnXnXnXnXnXnXnXnXnXnXnXnXnXnXnXnX$ 1 X.S.;X(.rXnXnXnXnXnXnXnXnXnXnXnXc.~.~.N.5.nXnXnXnXnXnXnXnXnXnXnXnXnXnXnXnXnXnXnXnXnXnXnXnXnXnXnXnXnX>X,X1X7XnXnXnXnXnX",
"nXnXnXnXnXnXnXnXnXnXnXnXnXnXnXnXnX; 8 8.D.tX.X.XnXnXnXnXnXnXnXnXnXnXnX8.S.~.~.~._.nXnXnXnXnXnXnXnXnXnXnXnXnXnXnXnXnXnXnXnXnXnXnXnXnXnXnXnXnX,X,X1XnXnXnXnXnX",
"nXnXnXnXnXnXnXnXnXnXnXnXnXnXnXnXnXnX,.~.;XrXtXQ.nXnXnXnXnXnXnXnXnXnXnX7 <.R.R.~._.=XnXnXnXnXnXnXnXnXnXnXnXnXnXnXnXnXnXnXnXnXnXnXnXnXnXnXnXnXnX1X1X7XnXnXnXnX",
"nXnXnXnXnXnXnXnXnXnXnXnXnXnXnXnXnX| ,.R.(.@X=X-XnXnXnXnXnXnXnXnXnXnXnX7 O.N.x.M.~._.@X-XnXnXnXnXnXnXnXnXnXnXnXnXnXnXnXnXnXnXnXnXnXnXnXnXnXnXnXnXnX1X8XnXnXnX",
"nXnXnXnXnXnXnXnXnXnXnXnXnXnXnXnXnXX.,.!.~.~.XX%Xy.nXnXnXnXnXnXnXnXnXnX5 X.q.m.7.M.~._.`.0.nXnXnXnXnXnXnXnXnXnXnXnXnXnXnXnXnXnXnXnXnXnXnXnXnXnXnXnXnX8X9XnXnX",
"nXnXnXnXnXnXnXnXnXnXnXnXnXnXnXnXnX7 X.b.n.~.%X@Xy.nXnXnXnXnXnXnXnXnXnXo 3 ..O.O.8.c.M.c.@.6.nXnXnXnXnXnXnXnXnXnXnXnXnXnXnXnXnXnXnXnXnXnXnXnXnXnXnXnX9X9X9XnX",
"nXnXnXnXnXnXnXnXnXnXnXnXnXnXnXnXnX< ` ` ,.R.R.~.nXnXnXnXnXnXnXnXnXnXnXO O 2 ` ) ( X.@.@.@.4.4.nXnXnXnXnXnXnXnXnXnXnXnXnXnXnXnXnXnXnXnXnXnXnXnXnXnXnXnXuXuXnX",
"nXnXnXnXnXnXnXnXnXnXnXnXnXnXnXnXnXnX] ` o.b.6.nXnXnXnXnXnXnXnXnXnXnXnXnXnXnXnXnXnXnXnXnXnXnXnXnXnXnXnXnXnXnXnXnXnXnXnXnXnXnXnXnXnXnXnXnXnXnXnXnXnXnXnXnXnXnX",
"nXnXnXnXnXnXnXnXnXnXnXnXnXnXnXnXnXnXnX| ` | O.nXnXnXnXnXnXnXnXnXnXnXnXnXnXnXnXnXnXnXnXnXnXnXnXnXnXnXnXnXnXnXnXnXnXnXnXnXnXnXnXnXnXnXnXnXnXnXnXnXnXnXnXnXnXnX",
"nXnXnXnXnXnXnXnXnXnXnXnXnXnXnXnXnXnXnXnX) ( nXnXnXnXnXnXnXnXnXnXnXnXnXnXnXnXnXnXnXnXnXnXnXnXnXnXnXnXnXnXnXnXnXnXnXnXnXnXnXnXnXnXnXnXnXnXnXnXnXnXnXnXnXnXnXnX",
"nXnXnXnXnXnXnXnXnXnXnXnXnXnXnXnXnXnXnXnXnXnXnXnXnXnXnXnXnXnXnXnXnXnXnXnXnXnXnXnXnXnXnXnXnXnXnXnXnXnXnXnXnXnXnXnXnXnXnXnXnXnXnXnXnXnXnXnXnXnXnXnXnXnXnXnXnXnX"
};
