/* XPM */
static char *result[] = {
/* columns rows colors chars-per-pixel */
"52 100 123 2 ",
"   c #150A2E",
".  c #160B31",
"X  c #180B35",
"o  c #1B0D3B",
"O  c #1F0F43",
"+  c #200F46",
"@  c #22104B",
"#  c #261253",
"$  c #281356",
"%  c #2B145E",
"&  c #2D1563",
"*  c #2F1668",
"=  c #30166A",
"-  c #33186F",
";  c #361A75",
":  c #371A78",
">  c #391B7C",
",  c #402074",
"<  c #3C1C84",
"1  c #3F1E8B",
"2  c #401F85",
"3  c #401E8D",
"4  c #421F90",
"5  c #431F99",
"6  c #402080",
"7  c #472489",
"8  c #502A84",
"9  c #5D3183",
"0  c #442195",
"q  c #4F2990",
"w  c #47229C",
"e  c #49239E",
"r  c #592E9F",
"t  c #603383",
"y  c #64358C",
"u  c #6B3997",
"i  c #4B25A2",
"p  c #4D27A8",
"a  c #4E29AA",
"s  c #542AA3",
"d  c #5A2DA4",
"f  c #512AAC",
"g  c #5B2FA9",
"h  c #5F31AB",
"j  c #532DB3",
"k  c #562FB8",
"l  c #5930B4",
"z  c #5730BA",
"x  c #5932BE",
"c  c #6333A7",
"v  c #6A39A1",
"b  c #6333AC",
"n  c #6936A9",
"m  c #6E39AB",
"M  c #703BAC",
"N  c #6636B1",
"B  c #6937B2",
"V  c #6C39B4",
"C  c #6438BF",
"Z  c #6F3BB8",
"A  c #743EB3",
"S  c #733EBB",
"D  c #7D42B2",
"F  c #7740BA",
"G  c #7D44BF",
"H  c #5C34C3",
"J  c #5E37C8",
"K  c #5F38CA",
"L  c #673AC5",
"P  c #623ACF",
"I  c #6A3ECF",
"U  c #633AD0",
"Y  c #693DD0",
"T  c #6E40CF",
"R  c #7340C6",
"E  c #7E46C4",
"W  c #7342CF",
"Q  c #7B46CF",
"!  c #7E48CF",
"~  c #7644D0",
"^  c #7F49D0",
"/  c #8346AE",
"(  c #8346B3",
")  c #8548B4",
"_  c #8D4CB7",
"`  c #8C4CBC",
"'  c #904EB8",
"]  c #9450BB",
"[  c #9B54BC",
"{  c #8549C3",
"}  c #8E4EC3",
"|  c #834BCF",
" . c #8A4ECE",
".. c #8F50CF",
"X. c #9552C5",
"o. c #9B55C3",
"O. c #9D58C6",
"+. c #9553CF",
"@. c #9A56CF",
"#. c #9E58CF",
"$. c #8F52D0",
"%. c #9654D0",
"&. c #9B57D0",
"*. c #9E58D0",
"=. c #AC5FC3",
"-. c #A35BCE",
";. c #A95ECF",
":. c #A45CD1",
">. c #AA5FD0",
",. c #AD60C3",
"<. c #AE62CF",
"1. c #B464C6",
"2. c #B364CF",
"3. c #B967CB",
"4. c #BD69CD",
"5. c #AE61D0",
"6. c #B365D0",
"7. c #C36DCF",
"8. c #C86FCE",
"9. c #CB72CF",
"0. c #C36DD0",
"q. c #CC72D0",
"w. c None",
/* pixels */
"w.w.w.w.w.w.w.w.w.w.w.w.w.w.w.w.w.w.w.w.w.w.w.w.w.w.w.w.w.w.w.w.w.w.w.w.w.w.w.w.w.w.w.w.w.w.w.w.w.w.w.w.",
"w.w.w.w.w.w.w.w.w.w.w.w.w.w.w.w.w.w.w.w.w.w.w.w.w.w.w.w.w.w.w.w.w.w.w.w.w.w.w.w.w.w.w.w.w.w.w.w.w.w.w.w.",
"w.w.w.w.w.w.w.w.w.w.w.w.w.w.w.+.+.+.+.+.+.+.+.+.+.+.+.w.w.w.w.w.w.w.w.w.w.w.w.w.w.w.w.w.w.w.w.w.w.w.w.w.",
"w.w.w.w.w.w.w.w.w.w.w.w.w.w.+.+.%.+.+.+.+.+.+.+.%.+.+.+.w.w.w.w.w.w.w.w.w.w.w.w.w.w.w.w.w.w.w.w.w.w.w.w.",
"w.w.w.w.w.w.w.w.w.w.w.w.w.+.+.+.+.+.+.+.+.+.+.+.+.+.+.+.%.w.w.w.w.w.w.w.w.w.w.w.w.w.w.w.w.w.w.w.w.w.w.w.",
"w.w.w.w.w.w.w.w.w.w.w.w.w.+.+.+.+.+.+.+.+.+.+.+.+.+.+.+.+.+.! P w.w.w.w.w.w.w.w.w.w.w.w.w.w.w.w.w.w.w.w.",
"w.w.w.w.w.w.w.w.w.w.w.w.w.w.+.+.+.+.+.%. . .+.+.+.+.+.+.+.+.| T w.w.w.w.w.w.w.w.w.w.w.w.w.w.w.w.w.w.w.w.",
"w.w.w.w.w.w.w.w.w.w.w.w.w.w.w.w.w.w.w.w.P Y +.%.+.+.+.+.+.+.+.+.W P w.w.w.w.w.w.w.w.w.w.w.w.w.w.w.w.w.w.",
"w.w.w.w.w.w.w.w.w.w.w.w.w.w.w.w.w.w.w.U U U Q Q Q  .+.+.+.+.+.%.W U U w.w.w.w.w.w.w.w.w.w.w.w.w.w.w.w.w.",
"w.w.w.w.w.w.w.w.w.w.w.w.w.w.w.w.w.w.w.U P P P P P | +.+.%.+.+.%.W K U U w.w.w.w.w.w.w.w.w.w.w.w.w.w.w.w.",
"w.w.w.w.w.w.w.w.w.w.w.w.w.w.w.P P P P P P P P P P I W ..-.4.0.4.Q K U P P w.w.w.w.w.w.w.w.w.w.w.w.w.w.w.",
"w.w.w.w.w.w.w.w.w.w.w.w.w.w.w.P P P P P P P P U P P P Q X.0.8.9. .I P P P U w.w.w.w.w.w.w.w.w.w.w.w.w.w.",
"w.w.w.w.w.w.w.w.w.w.w.w.w.U P P P P P P P P P P P P P p g +.6.9.:. .I K U U P P P w.w.w.w.w.w.w.w.w.w.w.",
"w.w.w.w.w.w.w.w.w.w.w.w.w.P P P U P P P P P P P P H k i s A O.8.6.:.! T U U P P P w.w.w.w.w.w.w.w.w.w.w.",
"w.w.w.w.w.w.w.w.w.w.w.w.U P P P P P P P P P P P P j 5 e w 5 ) q.q.7.+.| P K U U P w.w.w.w.w.w.w.w.w.w.w.",
"w.w.w.w.w.w.w.w.w.w.w.w.P P P P P P P P k f a f f i e 5 w w A ;.0.9.0.#.P U U U P P w.w.w.w.w.w.w.w.w.w.",
"w.w.w.w.w.w.w.w.w.w.w.w.P P P P U P P J p w w w w w w w w w B  .3.8.q.;.I I P P P P P w.w.w.w.w.w.w.w.w.",
"w.w.w.w.w.w.w.w.w.w.w.w.U P P P U U k i w w w w w w w w w w e s { :.8.3...I P P P P P w.w.w.w.w.w.w.w.w.",
"w.w.w.w.w.w.w.w.w.w.w.P P P P P P H f w w w w w w w w w w w w w V { 7.3.+.L H P P U P w.w.w.w.w.w.w.w.w.",
"w.w.w.w.w.w.w.w.w.w.P P P P P U H w w w w w w w w w w w w w w w w d 7.4.+.A e H U P P P w.w.w.w.w.w.w.w.",
"w.w.w.w.w.w.w.w.w.w.P P P U P j a w w w w w w w w w e w w < 3 w 5 d 3.8.3.A w H U P P P w.w.w.w.w.w.w.w.",
"w.w.w.w.w.w.w.w.w.w.P P U K J p w e w w w w w w w w 5 w 4 > 2 w w d 3.8.9.) i J U P P P w.w.w.w.w.w.w.w.",
"w.w.w.+.+.w.w.w.w.w.P P P k p w w w w w w w w w e 3 > > > > > > > 7 X.2.q.-.{ I U P P P w.w.w.w.w.w.w.w.",
"w.w.w.+.+.w.w.w.w.w.U P U f w s g d s w w w e 0 4 < ; : : : > ; : > A [ q.>.$.L H P P P w.w.w.w.w.w.w.w.",
"w.w.w.w.w.w.w.w.P P P P U j e { +.+.V w w w w 4 > ; > ; ; > ; ; : > > u 9.5.+.s p P P P P P w.w.w.w.w.w.",
"w.w.w.w.w.w.w.w.P P P I Q S A -.<.6.D 5 w w w 3 ; > > ; ; > ; = = = * y 9.] V i p P P P P P w.w.w.w.w.w.",
"w.w.w.w.w.w.w.w.P P P W +.+.&.8.9.9.` w w w w 3 ; ; ; ; ; ; = % % % % t 9.( w w p J P P P P w.w.+.w.w.w.",
"w.w.w.w.w.w.w.U P U P W %.<.4.9.1.m d w w w < > > > ; > ; * & % % % % t 9.D w w i p k U P P w.w.+.w.w.w.",
"w.w.w.w.w.w.w.P P P I ! -.3.9.3.[ e w w w 0 > : ; > > ; - % % & % % % 9 7.D w w w w f J P P w.w.+.%.w.w.",
"w.w.w.w.w.w.w.P P I  .-.8.q.8.n e e w w e 0 > : : : ; & % % % % % % % 8 +.V w w w w w i H U w.w.+.+.+.w.",
"w.w.w.w.w.w.P P P I ..;.q.=.' s w w w w 0 2 > : : : ; & % % % % % % % , v q < 4 w e w w x P w.w.+.+.+.w.",
"w.w.w.w.w.P P P P I +.:.q.D 5 w w w w w < ; : : : : : % % % % % % % % % % % & 4 w w w e x P w.w.+.+.+.w.",
"w.w.w.w.w.P P U Q  .6.0.9.D w w e e e 5 < : : : : : ; & % % % % % % % % % % & 1 w w a x J U w.w.%.+.+.w.",
"w.w.w.w.w.P P P  .*.8.8.8.D 0 w 5 5 e e < : : : : ; ; & % % % % % % % % % % & 4 w w j U K U w.w.+.+.+.w.",
"w.w.w.w.w.P P P | *.8.4.#.B w w e e 5 5 < ; : : : * & % % % % % @ @ # @ @ @ # 1 i w j U U U U T +.+.+.w.",
"w.w.w.w.w.P P P  .*.8.1.G g w w e 5 5 4 > ; : : > * % % % % % % @ @ @ @ @ @ @ 1 w w a H K U P T +.+.+.w.",
"w.w.w.w.w.P P P | *.q.[ e w w e e e 3 : : : : : : * % % % % $ @ + @ @ @ @ @ # 1 i 5 w w H U U ~ +.+.+.w.",
"w.w.w.w.U P P I *.6.5.` w w e 0 5 e 3 : : : : : : * % % % % $ O @ @ @ @ @ @ @ 3 w w w w x U U T +.%.+.w.",
"w.w.w.P P P P I <.8.+.S w w w w 5 e 3 ; : : : : : = % % % % $ @ @ @ @ @ @ @ @ 3 w w w w x P K ~ +.+.+.w.",
"w.w.w.w.w.P W  .4.3.b s w w w w e 5 3 ; : : : : > = % % % @ @ @ @ @ @ @ @ o o 1 w w w w H P U T +.+.+.w.",
"w.w.w.w.w.P | -.7.3.r w w w w w e 5 2 : : : : : ; * % % $ @ @ @ @ + @ + O X . ; < w w w x K U ~ +.+.+.w.",
"w.w.w.w.w.P +.q.9.3.e w w w e w 5 i 3 ; : : : - % % % % % @ @ @ @ @ @ O         @ 0 w w H U U T +.+.%.w.",
"w.w.w.w.w.Q #.9.9.3.s w w w w w e e 3 ; : : : - & % % % % @ @ @ @ + o o         + 0 w w x Y W | +.+.+.w.",
"w.w.w.w.w.+.6.9.8.1.s w w w w w e 5 3 > : : : - % % % % $ O @ @ @ + .           + w w w x Y ..+.+.+.+.w.",
"w.w.w.w.w.4.8.q.) b e w 5 e e 5 5 i 1 : : : : - % % % % % @ @ @ @ + .           + 0 w w H Y ..+.+.%.+.w.",
"w.w.w.w.w.9.q.4.n 5 w w e w w e e 5 1 : : : : - % % % % % @ @ @ @ + .           + 0 w w H Y ..+.+.+.+.w.",
"w.w.w.+.-.9.6.+.g e w e w w 5 e e 5 1 : : : : - & % % % $ O @ @ @ + .           + 0 w w x Y ..+.+.w.w.w.",
"w.w.w.+.#.9.<.! g 5 w 5 e w e e 5 i 3 : : : : - % % % % % @ O @ @ + .           + 0 w w x I ..+.+.w.w.w.",
"w.w.w.+.-.9.+.P f w w w w w w w e e 1 : : : : - & % % % $ @ @ @ @ + .           + w w w x I ..+.+.w.w.w.",
"w.w.w.+.-.9.+.P f 0 w w w w w w 5 i 1 : : : : - % % % % % @ @ @ @ + .     . . & > w w w x T ..+.+.w.w.w.",
"w.w.w.+.-.7.+.P a w w w w w w w i 5 1 : : : : - & % % % $ @ @ O @ + .       X 1 w w w w H I ..+.+.w.w.w.",
"w.w.w.+.+.#.| P a w w w w w w w 5 w 1 : : : : - % % % % % @ @ @ @ + .       X < w w w w x P ..+.+.w.w.w.",
"w.w.w.+.%.| W P s w w w w w w w e e 1 : : : : - % % & % % @ @ @ @ + .       X 1 e w w i C W +.+.+.w.w.w.",
"w.+.+.+. .P P P a w w w w w w w 5 e 1 : : : : - % % % % $ @ @ @ @ + .       X < w w w w E %.+.+.+.w.w.w.",
"w.+.+.+. .P P P a e w w w e w w 5 e 1 : : : : - % % % % $ @ @ @ @ + .       X 1 w w w w G %.+.+.+.w.w.w.",
"w.+.+.+. .U U P a w w w w w w w i 5 1 : : : : - % % % % % @ @ @ @ + .       X < e w w e G %.+.+.%.w.w.w.",
"w.w.w.%. .Y U K a w w w w w w w 5 i 1 : : : : - % % % % % % # @ @ @ + o     . < w w w w E +.%.+.+.w.w.w.",
"w.w.w.+. .U U U a w w w w w w w e 5 1 : : : : - & % % % % & # @ @ @ @ O X X o 1 w w w e G %.+.+.+.w.w.w.",
"w.+.+.+. .U P K p w w w w w w w w i 1 : : : : - % % % % % % # @ @ @ + @ # O @ 7 i w w w G %.+.+.+.w.w.w.",
"w.+.%.%. .U U U a w w w w w w w w 5 1 : : : : - % % % % % % # @ @ @ @ @ O O # 1 w w w e G %.+.+.+.w.w.w.",
"w.+.+.+. .P K K s w w w w w w w w i 1 : : : : - % % % % % % # @ @ @ @ @ @ @ # 1 w w w w G %.+.+.+.w.w.w.",
"w.+.+.+...P U P a w w w w w w w w w 1 : : : : - % % % % % % # @ @ @ O @ @ @ # 1 w w w w G %.+.+.w.w.w.w.",
"w.+.+.+. .P P P a e w w w w w w w w 1 : : : : - % % % % % % $ @ @ @ @ @ @ @ @ 1 w w i s { *.%.+.w.w.w.w.",
"w.+.+.+. .P P P a w w e w w w w e 5 1 : : : : - % % & % % & % & @ @ @ @ @ @ # 1 w w B ..3.7.#.+.w.w.w.w.",
"w.+.+.+. .P P P k a e e w w 5 e w e 1 : : : : - % % % & % % % % # # # # # @ # 1 w w A 5.8.0...^ w.w.w.w.",
"w.+.+.+. .U P P P J i 5 w w e w w w 1 : : : : - % % % % % % % % & % % % % % & 0 w w ( q.q.4.T K U w.w.w.",
"w.+.+.+. .I P P P J i e w e e w 5 i 1 : : : ; ; - & % % % % % % % % % % % % & 1 d ] 1.q.2.*.T U w.w.w.w.",
"w.&.+.+. .P P P P J i e i e w w e 5 1 : : : : : > = % % & % % % % % % % % & * 4 b 8.q.4.#. .P P w.w.w.w.",
"w.+.+.+.%.w.P U P J i g { N w w 5 e 1 ; : : : : ; = % % % % % % % % % % % > 0 5 c 9.:.T T Y P P w.w.w.w.",
"w.w.+.+.+.w.w.P P J w l %.D m M n e 1 > : : ; > > = % % % % % % & % % % % < e n / 9.*.K K U P P w.w.w.w.",
"w.w.w.+.+.w.w.P P J w N %.6.9.9.=.i 2 > : ; ; ; ; = % % % % % % % % % % % < e 1.9.9.#.P U U U P w.w.w.w.",
"w.w.w.+.+.w.w.w.P J i b %.:.<.q.=.e 4 4 > > > ; > - = & & % % % % % % % % > i 1.7.+.Q P U U w.w.w.w.w.w.",
"w.w.w.+.+.w.w.w.U J i b ..+.+.0.1.e w w < : : : ; ; : & & % % % % % % % & < d 1.6.P P P P U w.w.w.w.w.w.",
"w.w.w.+.+.w.w.w.P P J x s G &.0.=.e 5 w < : : : ; > ; ; - % % % % % % - 7 / 1.9.3.I P U P P w.w.w.w.w.w.",
"w.w.w.+.+.w.w.w.P P P x w S &.0.1.m d 5 < ; : : ; ; > : ; & & & % % % ; 5 ` 0.1.O.Y P P P P w.w.w.w.w.w.",
"w.w.w.+.+.w.w.w.P P P x w F &.7.9.8._ 5 < ; : : > ; ; : : : : ; & % % ; i S +.d a P P P P P w.w.w.w.w.w.",
"w.w.w.+.+.w.w.w.P P U x w h F 4.9.q.' w 3 2 : : : : : : : : : : - & & * > r A j z P P P P w.w.w.w.w.w.w.",
"w.w.w.+.+.w.w.w.P P U x w w i 1.9.q._ w w w > : : : : : : : : : : : & % % < i J U P P P w.w.w.w.w.w.w.w.",
"w.w.w.%.+.w.w.w.P P P J H a e X.6.q._ w e 5 4 3 : : : : : : : : : : 1 1 1 a H P P P P P w.w.w.w.w.w.w.w.",
"w.w.w.+.+.w.w.w.P P P P U j e { *.8.' r i 5 e 4 : : : : : : > > > < w w w k U P P P P P w.w.w.w.w.w.w.w.",
"w.w.w.w.w.w.w.w.P P P P U a w J ! 8.2.{ d w e 4 > : ; ; > : < w w 5 w w w k U P P P P w.w.w.w.w.w.w.w.w.",
"w.w.w.w.w.w.w.w.w.U P P U x j J ~ 6.6.>.b w w 4 < > > < < < 3 w w w w i f H U P P P P w.w.w.w.w.w.w.w.w.",
"w.w.w.w.w.w.w.w.w.w.P P U P P P I ..5.8.M w w w w 1 > 4 w w e e w w w a P P P P P P P w.w.w.w.w.w.w.w.w.",
"w.w.w.w.w.w.w.w.w.w.w.P P P P U I +.6.q.=.' e e w 4 4 w e w w w j x x H P P P P P P U w.w.w.w.w.w.w.w.w.",
"w.w.w.w.w.w.w.w.w.w.w.w.P P P P I +.;.0.q.4.d e w w w w w w w w x U P U P P P P P P w.w.w.w.w.w.w.w.w.w.",
"w.w.w.w.w.w.w.w.w.w.w.w.P P P P P I | #.7.8...S w w w w w w w w H P P P U P P P P w.w.w.w.w.w.w.w.w.w.w.",
"w.w.w.w.w.w.w.w.w.w.w.w.P P P P P U Q +.<.3.>.} g s w w e p p f J P P P P P P P P w.w.w.w.w.w.w.w.w.w.w.",
"w.w.w.w.w.w.w.w.w.w.w.w.w.U P P P P Q +.+.#.8.3.+.N w w p P P P P P P P P P P w.w.w.w.w.w.w.w.w.+.w.w.w.",
"w.w.w.w.w.w.w.w.w.w.w.w.w.P P P P P Y Q W | :.2.2.E k k x P P P P P P P P P U w.w.w.w.w.w.w.w.+.+.w.w.w.",
"w.w.w.w.w.w.w.w.w.w.w.w.w.U P P P P P P P I  .-.9...U U U P P P P P P U P P P w.w.w.w.w.w.w.+.+.+.w.w.w.",
"w.w.w.w.w.w.w.w.w.w.w.w.w.w.w.P I P P P P P I ! #.+. . .| P P P P P P P P P w.+.+.w.w.w.w.w.w.w.w.w.w.w.",
"w.w.w.w.w.w.w.w.w.w.w.w.w.w.w.P K U P P P P P W +.+.%.+. .W I P P P U P P w.w.+.+.w.w.w.w.w.w.w.w.w.w.w.",
"w.w.w.w.w.w.w.w.w.w.w.w.w.w.w.w.w.U U U P P U W %.+.+.+.+.+.Q U P P w.w.w.+.+.+.+.+.+.w.w.w.w.w.w.w.w.w.",
"w.w.w.w.w.w.w.w.w.w.w.w.w.w.w.w.w.U P P P P P W +.+.+.+.+.+. .Q Q ! +.w.w.+.+.+.+.+.w.w.w.w.w.w.w.w.w.w.",
"w.w.w.w.w.w.w.w.w.w.w.w.w.w.w.w.w.w.w.P P P P W +.+.+.+.+.+.+.%.%.+.+.+.+.+.+.%.+.w.w.w.w.w.w.w.w.w.w.w.",
"w.w.w.w.w.w.w.w.w.w.w.w.w.w.w.w.w.w.w.w.w.w.w.w.w.+.+.+.+.+.+.+.+.+.+.+.+.+.+.w.w.w.w.w.w.w.w.w.w.w.w.w.",
"w.w.w.w.w.w.w.w.w.w.w.w.w.w.w.w.w.w.w.w.w.w.w.w.w.w.+.+.+.+.+.%.+.+.+.+.+.+.%.w.w.w.w.w.w.w.w.w.w.w.w.w.",
"w.w.w.w.w.w.w.w.w.w.w.w.w.w.w.w.w.w.w.w.w.w.w.w.w.w.w.+.+.+.+.+.+.+.+.+.+.w.w.w.w.w.w.w.w.w.w.w.w.w.w.w.",
"w.w.w.w.w.w.w.w.w.w.w.w.w.w.w.w.w.w.w.w.w.w.w.w.w.w.w.w.+.+.+.+.+.+.+.+.+.w.w.w.w.w.w.w.w.w.w.w.w.w.w.w.",
"w.w.w.w.w.w.w.w.w.w.w.w.w.w.w.w.w.w.w.w.w.w.w.w.w.w.w.w.w.w.w.w.w.w.w.w.w.w.w.w.w.w.w.w.w.w.w.w.w.w.w.w."
};
