/* XPM */
static char *e0555ef60ead48bdbc4f899136f1627elbLjwaDRcxkPojSd[] = {
/* columns rows colors chars-per-pixel */
"70 70 236 2 ",
"   c None",
".  c #053E92",
"X  c #0B469E",
"o  c #0A489F",
"O  c #124E9E",
"+  c #1D559F",
"@  c #0C46A3",
"#  c #0B4AA4",
"$  c #0C4DAA",
"%  c #0749A5",
"&  c #1048A5",
"*  c #0C53AC",
"=  c #0E58AC",
"-  c #1656A8",
";  c #0E55B1",
":  c #0D5AB4",
">  c #0F5EB8",
",  c #135CB5",
"<  c #115EBB",
"1  c #1254B2",
"2  c #265CA9",
"3  c #1E65A4",
"4  c #1A66AD",
"5  c #1B71AF",
"6  c #0E63BB",
"7  c #0E6BBE",
"8  c #1C63B4",
"9  c #166CB4",
"0  c #1B6BB4",
"q  c #1363BC",
"w  c #156BBC",
"e  c #1A6BBB",
"r  c #1A64B9",
"t  c #1C72BC",
"y  c #1973B7",
"u  c #0B62AF",
"i  c #2264AD",
"p  c #266AAF",
"a  c #2A69AB",
"s  c #236AB4",
"d  c #246EBD",
"f  c #286FB8",
"g  c #2374B9",
"h  c #2674BA",
"j  c #3574B3",
"k  c #347AB9",
"l  c #387BB5",
"z  c #3773AE",
"x  c #437EB5",
"c  c #0B6BC1",
"v  c #156CC3",
"b  c #1C6CC3",
"n  c #1767C3",
"m  c #0E7DCB",
"M  c #0B72C6",
"N  c #1672C5",
"B  c #1B72C3",
"V  c #1A79C7",
"C  c #1574CC",
"Z  c #1A74CD",
"A  c #157ACC",
"S  c #1D79CC",
"D  c #157DC4",
"F  c #0E7BD0",
"G  c #1A76D1",
"H  c #147DD3",
"J  c #197AD2",
"K  c #1777D0",
"L  c #2376C3",
"P  c #3479C1",
"I  c #256BC0",
"U  c #3D82BE",
"Y  c #3F82B7",
"T  c #4687BA",
"R  c #528EBD",
"E  c #4F93BB",
"W  c #0D86CD",
"Q  c #1383CC",
"!  c #1C84CD",
"~  c #1A8ACC",
"^  c #0D84D5",
"/  c #0D85D9",
"(  c #0B8CDC",
")  c #0B8AD7",
"_  c #1283D4",
"`  c #1A82D3",
"'  c #198AD6",
"]  c #1284D9",
"[  c #1E8DDA",
"{  c #128CD8",
"}  c #0694DD",
"|  c #0A93DE",
" . c #0D9BDE",
".. c #079ADF",
"X. c #1A93DD",
"o. c #1396DB",
"O. c #2C84CC",
"+. c #228CCB",
"@. c #2487CB",
"#. c #3C82C2",
"$. c #3689CB",
"%. c #2888D2",
"&. c #2799D8",
"*. c #3396D7",
"=. c #3A8FD0",
"-. c #1BA8DF",
";. c #29A3DD",
":. c #33A0D3",
">. c #0593E1",
",. c #0995E2",
"<. c #039AE4",
"1. c #0A9CE4",
"2. c #089BE9",
"3. c #1293E0",
"4. c #229AE3",
"5. c #2497E5",
"6. c #13A3E9",
"7. c #1AADEC",
"8. c #16A5E6",
"9. c #1CABF2",
"0. c #13AAF0",
"q. c #0FA1ED",
"w. c #26A8EA",
"e. c #37ACE8",
"r. c #2CB3EC",
"t. c #25B0EE",
"y. c #34B2E7",
"u. c #25ADF3",
"i. c #2EAFF1",
"p. c #25B3F4",
"a. c #2BB3F4",
"s. c #24B2F8",
"d. c #2AB5F9",
"f. c #2AB9F0",
"g. c #33B7F3",
"h. c #36BAF2",
"j. c #3CBAF3",
"k. c #4584C2",
"l. c #448BC6",
"z. c #548CC2",
"x. c #4693CC",
"c. c #5696C7",
"v. c #4A99D7",
"b. c #408FD6",
"n. c #4AA1D8",
"m. c #5AA8D9",
"M. c #48B7DF",
"N. c #5FA1CF",
"B. c #67A7CE",
"V. c #62A3D1",
"C. c #66A9D9",
"Z. c #74AAD5",
"A. c #74A9D1",
"S. c #6CB1DC",
"D. c #63B4DE",
"F. c #77B6DC",
"G. c #4DB5E4",
"H. c #4CBBE4",
"J. c #43BCEE",
"K. c #46B9E3",
"L. c #58BCE8",
"P. c #4CB0E6",
"I. c #69B9E4",
"U. c #76BAE4",
"Y. c #79BBE1",
"T. c #75B8E6",
"R. c #63A9E0",
"E. c #4DC1EF",
"W. c #55C1EC",
"Q. c #5BC4E9",
"!. c #5ECAEE",
"~. c #5CC3E7",
"^. c #4AC2F2",
"/. c #51C3F2",
"(. c #5BC8F4",
"). c #6BCBEC",
"_. c #63C5E9",
"`. c #7CC0E5",
"'. c #78C8EB",
"]. c #69CCF2",
"[. c #73CFF2",
"{. c #74D3F5",
"}. c #7CD3F1",
"|. c #79D9F7",
" X c #84BCDD",
".X c #81BEE3",
"XX c #82C1DF",
"oX c #84C2E4",
"OX c #8AC5E5",
"+X c #82C6EA",
"@X c #8CC6E9",
"#X c #8DCBEB",
"$X c #86CAEA",
"%X c #93CBEA",
"&X c #95CAEB",
"*X c #94D3EE",
"=X c #9CDAEE",
"-X c #84D4F2",
";X c #8ED5F4",
":X c #82D9F2",
">X c #8BDAF5",
",X c #8BDAFB",
"<X c #95D4F1",
"1X c #9BD5F2",
"2X c #93DCF4",
"3X c #9DDBF4",
"4X c #94DCF9",
"5X c #9CDFF9",
"6X c #8BCFF0",
"7X c #A3DBF5",
"8X c #AADDF6",
"9X c #A6DDF7",
"0X c #9EE1F5",
"qX c #96E4F9",
"wX c #A5E1F5",
"eX c #ABE3F5",
"rX c #A5E2FA",
"tX c #ADE4FB",
"yX c #AAE8F9",
"uX c #B4E5F6",
"iX c #BAE9F6",
"pX c #B2E5FB",
"aX c #BAE6F9",
"sX c #B3E9FC",
"dX c #BCE9FA",
"fX c #B8E3F4",
"gX c #C4EAF7",
"hX c #C3EAF9",
"jX c #CAEBF8",
"kX c #C3E7F8",
"lX c #C8F1F9",
"zX c #D3F3FD",
"xX c #DEF2FD",
"cX c #DBF4FC",
"vX c #E2F5FC",
"bX c #E3F3FD",
/* pixels */
"                                                                                                                                            ",
"                                                                                                                                            ",
"                                                                                                                                            ",
"                                                                                                                                            ",
"                                                                                                                                            ",
"                                                                                                                                            ",
"                                                                                                                                            ",
"                                                                                                                                            ",
"                                                                                                                                            ",
"                                                          T #.#.#.k.#.#.#.#.U                                                               ",
"                                                  l k e 8 N.eXeXfXgXuXwXwXwXwXV.k k k l                                                     ",
"                                              j l @X3Xc.g V.tXdXzXcXzXuXtXpXtX8X7X3X7XoXk l                                                 ",
"                                          a x @X7XtXpX7X1X7XuXuXiXaXaXsXeXpXpXpXpXpXaX9X1X@Xk a                                             ",
"                                        R %X&XtXaXtXuXjXzXjXuXuXeXuXtXuXuXpXpXpXpXpXpXpXaXpX&XOXT                                           ",
"                                      R %XsXpXpXsXsXlXcXbXxXjXpXpXuXeXpXuXsXtXpXpXpXpXpXpXpXpXpX@XT                                         ",
"                                i s 8 x.tXpXpXpXpXsXiXhXhXhXaXeXpXpXpXpXpXpXpXpXpXpXpXpXpXpXpXpXaX@XR                                       ",
"                              V.S.S.S.B.A.eXtXpXpXpXpXtXpXtXeXaXpXpXpXpXpXpXpXpXpXpXpXpXtXpXpXpXpXpXoXR                                     ",
"                            3 Y.sXaXaX*XF.yXpXpXpXpXpXpXpXpXpXpXpXpXpXpXpXpXpXpXpXpXpXpXpXpXpXpXpXpXaXoXc.                                  ",
"                            c.#XtXpXpXpXtXaXkXgXpXpXpXpXpXpXpXpXpXpXpXpXpXpXpXpXpXpXpXpXpXpXpXpXpXpXpXaXXXE                                 ",
"                          s oXsXtXsXpXpXaXjXxXxXjXaXpXpXpXpXpXpX8XpXpXpXpXpXpXpXpXpXpXpXpXpXpXpXpXpXpXpXsXOXR                               ",
"                          f +XpXpXpXpXaXgXxXvXvXxXjXuXpXpXpXpXpXpXpXpXpXpXpXpXpXpXpXpXpXpXpXpXpXpXpXpXpXpXpXF.3                             ",
"                        T P %XaXpXpXpXgXxXbXbXvXvXvXdXpXpXpXtXpXpXpXpXpXpXpXpXpXpXpXpXpXpXpXpXpXpXpXpXpXpXsXXXl                             ",
"                    j T #X9XeXpXpXpXpXiXxXbXbXvXbXcXaXpXtXpXpXpXpXpXpXpXpXpXpXpXpXpXpX8XpXpXpXpXpXpXpXpXpXtXpXoXa                           ",
"                  Y *X7XtXpXpXpXpXpXsXsXhXcXbXvXxXkXpXpXpXpXpXpXpXpXpXpXpXpXpXpXpXpXpXpXpXpXpXpXpXpXpXpXpXpXsXOXl                           ",
"                  #.eXsXpXpXpXpXpXpXpXpXaXdXbXxXdXuXpXpXpXpXpXpXpXpXpXpXpXpXpXpXpXpXpXpXpXpXpXpXpXpXpXpXpXpXpXeXoXj                         ",
"                  #.9XpXpXpXtXpXpXpXpXaXpXsXdXdXaXpXpXpXpXpXpXpXpXpXpXpXpXpXtXpXpXpXpXpXpXpXpXpXpXpXpXpXpXaXpXsX%Xg                         ",
"                  U <Xc.1XaXpXpXpXpXtXpXpXtXpXpXpXpXpXpXpXpXpXpXpXpXpXpXpXpXpXpXpXpXpXpXpXpXpXtXpXpXtXpXpXpXpXsX#Xf                         ",
"                    l.B L.rXtXpXpXpXpXpXpXpXpXtXpXpXpXpXpXpXpXpXpXpXpXpXpXtXpXpXpXpXpXpXpXpXpXpXpXpXpXpXpXpXpXpX#Xf                         ",
"        i           w X.i.(.5XpXpXpXpXpXpXpXpXaXpXpXpXpXpXpXpXpXpXpXpXpXpXpXpXpXtXpXpXpXpXpXpXpXpXpXpXpXpXpXpXpX;X!                         ",
"      i l.c.        N u.d.g.>XpXpXpXpXpXpXpXpXpXpXpXpXpXpXpXpXpXpXpXaXpXpXpXpXpXaXpXpXpXpXpXpXpXpXpXpXpXpXpXpXaX<XX.w                       ",
"      i n.x.        +.u.7.a.>XsXpXpXaXpXpXpXpXpXpXpXpXpXpXtXpXpXpX9XY.9XpXpXpXpX%XY.$XpXpXaXpXpXpXpXpXpXpXpXpX3XQ.| c                       ",
"        D m N     ! d.u.4./.2XpXaXpXpXtXpXpXpXpXpXpXpXpXpXpXpX9X+XU.V.7XpXpXpXpXY.v.m.`.`.6X9XpXpXpXpXpXpXpXsX-X .>.v                       ",
"          A _ M m 1.9.6.~.iXeXwXtXpXpXpXpXpXpXpXpXpXpXpXpXpX9XI.S O.+XtXsXsXpXpXtX3XC.b b $.7XpXpXpXpXpXpXpXsX}.1.>.7                       ",
"            V ( <.<.<.8.wXcXlX=X5XpXpXpXpXpXpXpXpXpXpXpXpXaXU.S K S O.oX%X&X8XpXpXT.q @ * O.7XpXpXpXpXpXpXpXaX:Xw.( w                       ",
"              D } <.<. .[.iX0X{.4XpXpXaXpXtXpXpXpXpXpXpXpXaXY.O.S S b - - + Z.eXaXT.f - * O.<XtXpXpXpXpXpXpXuXyX-X&.9                       ",
"                m <.<.1.h.{.|./.[.rXrXtXpXpXpXpXpXpXpXtXpXpXrX3X+XI $ # @ % - A.9X1X#XV.= Z =.3XpXpXpXpXtXsXtXsXwX'.y                       ",
"                N <.<.2.p.h.h.f.J.J.J.[.tXsXaXpXpXpXpXpXpXpXpXsXoX- @ # r w = - P P a 2 ; ] %.4XaXtXpXpXpXtXyXsX3X;.t                       ",
"                  m 1.2.p.p.r.].,X,X].Q.tXpXsXpXpXtXpXpXpXpXaXpX XO @ @ * * q v v C , @ ; H O.<XpXpXtXtXtXtXuXsX;X{ 9                       ",
"                  w } <.s.f.].rXtXaX).M.tXsXpXpXsXsXsXsXZ.Z.aX@Xj X @ @ @ , , = = ; $ @ * C L v.<XS.k.l.v.U.sXsX6XL                         ",
"                    Q  .p.d./.4XpXuX=X'._.tXaXsXsXtXtXZ.2 z.aX XX @ # # , , # @ @ @ @ * C H G Z v.b # $ q %.U.2XP.g                         ",
"                      W t.d.d.W.2XaX=XL.-.E.H._.3XuXtXT . z.pX&XR & # # b * @ @ @ & @ * M G < , > # @ o r C v.}.) 9                         ",
"                      w i.d.d.a./.4X{.7.<.<.<.o.>X'.4XZ.R  XpX3XS.k.8 , , # @ @ @ @ & @ * b $ @ @ ; * o , J n.|.{ 0                         ",
"                      f &.i.H.!.j./.(.7.<.<.<. .Q.w.-XsXaX<X`.m.$.%Xd q % @ & @ & @ @ # 6 v : > * N 7 $ : %.R.H.Q                           ",
"                        0 4.].|./.p.a.r.e.y.r.8. .8.}.5X,Xm.w > a C., ; ; 1 1 1 # @ $ q H H J _ 6 H *.#.k.I.[.~ 0                           ",
"                        i ^ ..t.a.d.a.^.|.}.{.g.a.J.>XQ.w.V % @ - =.S H K G Z A q * ; _ } | ] A N C R.1XyX3XL.~ s                           ",
"                          w ) 7.d.s.p.a.w.8.t.f.H.>XtXm.$.f 2 2 T #X=.3.^ J J A B , ; H | | { C * % b U.uX).W 0                             ",
"                          5 W 7.d.9.<.<.<.1.1.y.-X3X4X<X>X;X1X7X7XpX%X[ >.,.] J q @ 1 Z S C C $ & @ r T.yX~.W 3                             ",
"                            e 4.s.0.<.<.<.} F ` e.*.&.y.j.j.].tXeXuX3X%.>.>.H G > % # $ $ $ $ & @ & I I._.! t                               ",
"                              L ' 1.<.<.<.( ; * > 5.9.6.2.9.h.J._.rXrXe.' ` J J 6 @ @ o X X & @ $ C.#XH.~ 5                                 ",
"                                h { <.<.} m # @ @ 6 5.X.X.s.d.d.r.K.qX>X$X+Xb.J , @ o @ @ @ $ q B +X~.+.5                                   ",
"                                  y W <.>.C $ $ < q ` ` ` [ [ 5.9.1.y.H.0XsX#X#.k.T X @ # q B I.`.M.+.g                                     ",
"                                    V ^ ,./ n # , C A v : ; n ] q.2.<. .y.2X).+.D.B.X @ * Z @.<X_.+.t                                       ",
"                                      L _ | / 6 , < b v ; $ n H ( | <.<.1.y.;.<.y.*.u o * C [ P.~ 5                                         ",
"                                        g _ ^ ^ ] M C G c n H / { ( <.<.>./ | ( ( ) W c M ^ ^ H g                                           ",
"                                          0 t _ ^ | / ] H H H ( | ( | ( H G J _ ] / ( >./ ` w 8                                             ",
"                                              3 0 _ ( ) / / ( / / / ^ H H ] ] / ) / / W 9 4                                                 ",
"                                                  i e e w A ( ( ( ( ( ( ( ( ( A e e r                                                       ",
"                                                            9 9 6 9 9 9 w 9 9                                                               ",
"                                                                                                                                            ",
"                                                                                                                                            ",
"                                                                                                                                            ",
"                                                                                                                                            ",
"                                                                                                                                            ",
"                                                                                                                                            ",
"                                                                                                                                            ",
"                                                                                                                                            ",
"                                                                                                                                            ",
"                                                                                                                                            ",
"                                                                                                                                            ",
"                                                                                                                                            "
};
