/* XPM */
static char *result[] = {
/* columns rows colors chars-per-pixel */
"100 74 57 1 ",
"  c #010101",
". c #06060A",
"X c #07080C",
"o c #0B0B0B",
"O c #0A0B14",
"+ c #0C0E19",
"@ c #0F111C",
"# c #151515",
"$ c #10131F",
"% c #1B1B1B",
"& c #121524",
"* c #141827",
"= c #16192A",
"- c #181C2E",
"; c #1A1E32",
": c #1C2136",
"> c #1E233B",
", c #242424",
"< c #272828",
"1 c #2A2A2B",
"2 c #20253E",
"3 c #323232",
"4 c #3A3A3A",
"5 c #212741",
"6 c #242945",
"7 c #262C4B",
"8 c #282F4E",
"9 c #292F50",
"0 c #2B3254",
"q c #2E365B",
"w c #2F385E",
"e c #30385F",
"r c gray26",
"t c #4B4B4B",
"y c #525252",
"u c #5D5D5D",
"i c #656565",
"p c #696969",
"a c #747474",
"s c #7C7C7C",
"d c #838383",
"f c #8B8B8B",
"g c gray58",
"h c #9C9C9C",
"j c #A6A6A6",
"k c #ABABAB",
"l c #B6B6B6",
"z c #BDBDBD",
"x c #C2C2C2",
"c c #CBCBCB",
"v c #D3D3D3",
"b c #DEDEDE",
"n c #E4E4E4",
"m c #EBEBEB",
"M c #F4F4F4",
"N c #FEFEFE",
"B c None",
/* pixels */
"BBBBBBBBBBBBBBBBBBBBBBBBBBBBBBBBBB BBBBBBBBBBBBBBB  BBBBBBBBBBBBBB BBBBBBBBBBBBBBBBBBBBBBBBBBBBBBBBB",
"BBBBBBBBBBBBBBBBBBBBBBBBBBBBBBBBB  BBBBBBBBBBBBBBB BBBBBBBBBBBBBBB BBBBBBBBBBBBBBBBBBBBBBBBBBBBBBBBB",
"BBBBBBBBBBBBBBBBBBBBBBBBBBBBBBBBB  BBBBBBBBBBBBBBB  BBBBBBBBBBBBBB  BBBBBBBBBBBBBBBBBBBBBBBBBBBBBBBB",
"BBBBBBBBBBBBBBBBBBBBBBBBBBBBBBBBBB BBBBBBBBBBBBBBBB BBBBBBBBBBBBBBB  BBBBBBBBBBBBBBBBBBBBBBBBBBBBBBB",
"BBBBBBBBBBBBBBBBBBBBBBB BBBBBBBBBBBBBB,BBBBBBBBBBBB BBBBBBBBBBBBBBB  BBBBBBBBBBBBBBBBBBBBBBBBBBBBBBB",
"BBBBBBBBBBBBBBBBBBBBBBB BBBBBBBBBBBBBodBBBBBBBBBBBBBBBBBBBBBBBBBBBB BBBBBBBBBBB BBBBBBBBBBBBBBBBBBBB",
"BBBBBBBBBBBBBBBBBBBBBBBB BBBBBBBBBBBBBBBBBBBBBBBBBBBBBBBBBBBBBBBBBBBBBBBBBBBBBB BBBBBBBBBBBBBBBBBBBB",
"BBBBBBBBBBBBBBBBBBBBBBBB BBBBBBBBBBBBBBBBBBBBBBBBBBBBBBBBBBBBBBBBBBBBBBBBBBBBB BBBBBBBBBBBBBBBBBBBBB",
"BBBBBBBBBBBBBBBBBBBBBBBB BBBBBBBBBBBBBBBBBBBBBBBBBBBBBBBBBBBBBBBBBBBBBBBBBBBBB BBBBBBBBBBBBBBBBBBBBB",
"BBBBBBBBBBBBBBBBBBBBBBBB BBBBBBBBBBBBBBBBB%BBBBBBBBBBBBBBBB%,BBBBBBBBBBBBBBBBBB BBBBBBBBBBBBBBBBBBBB",
"BBBBBBBBBBBBBBBBBBBBBBBB BBBBBBBBBBBBBBBBBgoBBBBBBBBBBBBBBogs#BBBBBBBBBBBBBBBBB BBBBBBBBBBBBBBBBBBBB",
"BBBBBBBBBBBBBBBBBBBBBBBB BBBBBBBBBBBBBBOdbj oBBBBBBBBBBBBo jbdoBBBBBBBBBBBBBBB  BBBBBBBBBBBBBBBBBBBB",
"BBBBBBBBBBBBBBBBBBBBBBBB BBBBBBBBBBBBB%sbNvBBBBBBBBBBBBBBBBvNbs%BBBBBBBBBBBBBB BBBBBBBBBBBBBBBBBBBBB",
"BBBBBBBBBBBBBBBBBBBBBBB BBBBBBBBBBBBBB%cNNvBBoBBBBBBBBBBoBBbNNv%BBBBBBBBBBBBBBB BBBBBBBBBBBBBBBBBBBB",
"BBBBBBBBBBBBBBBBBBBBBB BBBBBBBBBBBBBBBtbNnf..BBBBBBBBBBBB..fnNbtBBBBBBBBBBBBBBB BBBBBBBBBBBBBBBBBBBB",
"BBBBBBBBBBBBBBBBBBBBBB  BBBBBBBBBBBBB3bNmsoBBBBBBBBBBBBBBBBosmNb3BBBBBBBBBBBBBB BBBBBBBBBBBBBBBBBBBB",
"BBBBBBBBBBBBBBBBBBBBBBB  BBBBBBBBBBBB3mNp%BBBBBBBBBBBBBBBBBB%pNm3BBBBBBBBBBBBB BBBBBBBBBBBBBBBBBBBBB",
"BBBBBBBBBBBBBBBBBBBBBBB  BBBBBBBBBBBB1mNtBBBBBBBBBBBBBBBBBBBByNm3BBBBBBBBBBBBB BBBBBBBBBBBBBBBBBBBBB",
"BBBBBBBBBBBBBBBBBBBBBB  BBBBBBBBBBBBB3mNluBBBBBBBBBBBBBBBBBBulNn1BBBBBBBBBBBBB  BBBBBBBBBBBBBBBBBBBB",
"BBBBBBBBBBBBBBBBBBBB  BBBBBBBBBBBBBBB1mNNs BBBBBBBBBBBBBBBB sNNm3BBBBBBBBBBBBB  BBBBBBBBBBBBBBBBBBBB",
"BBBBBBBBBBBBBBBBBBBBB   BBBBBBBBBBBBB4lMNh4BBBBBBBBBBBBBBBB4hNMl3BBBBBBBBBBBB  BBBBBBBBBBBBBBBBBBBBB",
"BBBBBBBBBBBBBBBBBBBBBBB BBBBBBBBBBBBBB,cNNk,,,,,,,,,,,,,,,,kNNc,BBBBBBBBBBBB  BBBBBBBBBBBBBBBBBBBBBB",
"BBBBBBBBBBBBBBBBBBBBBBB BBBBBBBBBBBBBB%cNNMbbnbnbnbbnbbnbnnMNNc%BBBBBBBBBBB BBBBBBBBBBBBBBBBBBBBBBBB",
"BBBBBBBBBBBBBBBBBBBBBB  BBBBBBBBBBBBBBBrzNNNNNNNNNNNNNNNNNNNNzrBBBBBBBBBBBBB  BBBBBBBBBBBBBBBBBBBBBB",
"BBBBBBBBBBBBBBBBBBBBB  BBBBBBBBBBBBBBBBokNNNNNNNNNNNNNNNNNNNNkoBBBBBBBBBBBBBBB   BBBBBBBBBBBBBBBBBBB",
"BBBBBBBBBBBBBBBBBBBBBB   BBBBBBBBBBBBBBokNNNNNNNNNNNNNNNNNNNNkoBBBBBBBBBBBBBBBB  BBBBBBBBBBBBBBBBBBB",
"BBBBBBBBBBBBBBBBBBBBBBBBBBBBBBBBBBBBBBBokNNNNxlbNNNNNNnlxNNNNkoBBBBBBBBBBBBBBB  BBBBBBBBBBBBBBBBBBBB",
"BBBBBBBBBBBBBBBBBBBBBBBBBBBBBBBBBBBBBBBokNNMx, snNNNNms ,xMNNkoBBBBBBBBBBBBBBBB  BBBBBBBBBBBBBBBBBBB",
"BBBBBBBBBBBBBBBBBBBBBBBBBBBBBBBBBBBBBBBokNNc,  oaNNNNao .,cNNkoBBBBBBBBBBBBBBBBBBBBBBBBBBBBBBBBBBBBB",
"BBBBBBBBBBBBBBBBBBBBBBBBBBBBBBBBBBBBBBBokNNco   iNNNNi   ocNNkoBBBBBBBBBBBBBBBBBBBBBBBBBBBBBBBBBBBBB",
"BBBBBBBBBBBBBBBBBBBBBBBBBBBBBBBBBBBBBBBokNNcO   iNNNNi   ocNNkoBBBBBBBBBBBBBBBBBBBBBBBBBBBBBBBBBBBBB",
"BBBBBBBBBBBBBBBBBBBBBBBBBBBBBBBBBBBBBBBokNNcO   iNNNNi   ocNNkoBBBBBBBBBBBBBBBBBBBBB BBBBBBBBBBBBBBB",
"BBBBBBBBBBBBBBBBBBBBBBBBBBBBBBBBBBBBBBBokNNco   iNNNNi   ocNNkoBBBBBBBBBBBBBBBBBBBB BBBBBBBBBBBBBBBB",
"BBBBBBBBBBBBBBBBBB  BBBBBBBBBBBBBBBBBBBokNNv3. #dNNNNd#  4vNNkoBBBBBBBBBBBBBBBBBBBB BBBBBBBBBBBBBBBB",
"BBBBBBBBBBBBBBBBB  BBBBBBBBBBBBBBBBBBBBohNNNv3OfMNNNNMfO3vNNNhoBBBBBBBBBBBBBBBBBBBB  BBBBBBBBBBBBBBB",
"BBBBBBBBBBBBBBBBBBB  BBBBBBBBBBBBBBBBBB.%hNNNvvmNNNNNNmcvNNNh%oBBBBBBBBBBBBBBBBBBBBB BBBBBBBBBBBBBBB",
"BBBBBBBBBBBBBBBBBBBB BBBBBBBBBBBBBBBBOBB dNNNNNNNNNNNNNNNNNNd BBBBBBBBBBBBBBBBBBBBBB BBBBBBBBBBBBBBB",
"BBBBBBBBBBBBBBBBBB  BBBBBBBBBBBBBBBB%%BB.4kNNNNNNNNNNNNNNNNk4.BBBBBBBBBBBBBBBBBBBBBB BBBBBBBBBBBBBBB",
"BBBBBBBBBBBBBBBBBB BBBBBBBBBBBBBBBB%,4%By14lMNNNNNNNNNNNNNl4 BBBBBBBBBBBBBBBBBBBBBBB BBBBBBBBBBBBBBB",
"BBBBBBBBBBBBBBBBBB BBBBBBBBBBBBBBBB%4r4Ofp.4xcMNNNNNNNNMcz4 BBBBBBBBBBBBBBBBBBBBBBBB  BBBBBBBBBBBBBB",
"BBBBBBBBBBBBBBBBBB BBBBBBBBBBBBBBBBB%44oo143##kmnmmnmnmk##BBBBBBBBBBBBBBBBBBBBBBBBBBB BBBBBBBBBBBBBB",
"BBBBBBBBBBBBBBBBBB BBBBBBBBBBBBBBBBBB%3o<4rr3.%1<<,<<<<% BBBBBBBBBBBBBBBBBBBBBBBBBBB  BBBBBBBBBBBBBB",
"BBBBBBBBBBBBBBBBB  BBBBBBBBBBBBBBBBBBB#<4r3o#25++-.;2++52. BBBBBBBBBBBBBBBBBBBBBBBBB BBBBBBBBBBBBBBB",
"BBBBBBBBBBBBBBBBB BBBBBBBBBBBBBBBBBBB .3r1#.;0e*&6O9e&*eq-. BBBBBBBBBBBBBBBBBBBBBBBB BBBBBBBBBBBBBBB",
"BBBBBBBBBBBBBBBB BBBBBBBBBBBBBBBBBBB%%%,4%.-qqq*&8*;0>=5qq-ooBBBBBBBBBBBBBBBBBBBBBBB  BBBBBBBBBBBBBB",
"BBBBBBBBBBBBBBBB BBBBBBBBBBBBBBBBBBB#33#3%$qqq7$&q9O5e2$6qq$oBBBBBBBBBBBBBBBBBBBBBBBB BBBBBBBBBBBBBB",
"BBBBBBBBBBBBBBBBB BBBBBBBBBBBBBBBBBBB.o34%$qq0$.*09+2qq5+7q$oBBBBBBBBBBBBBBBBBBBBBBBB BBBBBBBBBBBBBB",
"BBBBBBBBBBBBBBBBB BBBBBBBBBBBBBBBBBBBBBoo $q9+28;$q9@>e06+7$oBBBBBBBBBBBBBBBBBBBBBBBB BBBBBBBBBBBBBB",
"BBBBBBBBBBBBBBBB BBBBBBBBBBBBBBBBBBBBBBB. &q0O6e;Oq0+;5*8X6& BBBBBBBBBBBBBBBBBBBBBBBB    BBBBBBBBBBB",
"BBBBBBBBBBBBBBBB BBBBBBBBBBBBBBBBBBBBBBB.+69*;9e>+qq+;9;=;=;$.BBBBBBBBBBBBBBBBBBBBBBBBB  BBBBBBBBBBB",
"BBBBBBBBBBBBBBBB BBBBBBBBBBBBBBBBBBBBBBB ;q6X9e6;*29;-66O9O5; BBBBBBBBBBBBBBBBBBBBBBBB  BBBBBBBBBBBB",
"BBBBBBBBBBBBBBBBB  BBBBBBBBBBBBBBBBBBBB.o>0>&96*;6o8e;;5X9O;2OoBBBBBBBBBBBBBBBBBBBBBBB BBBBBBBBBBBBB",
"BBBBBBBBBBBBBBBBBB  BBBBBBBBBBBBBBBBBBB.>e>+99&>q6+6qqq5o8$:8;.BBBBBBBBBBBBBBBBBBBBBBB  BBBBBBBBBBBB",
"BBBBBBBBBBBBBBBBB  BBBBBBBBBBBBBBBBBBBB.>q>+8+>0qq6O6qe6O80*X..BBBBBBBBBBBBBBBBBBBBBBBB BBBBBBBBBBBB",
"BBBBBBBBBBBBBBBBB BBBBBBBBBBBBBBBBBBBBB.>>&69O6qe6+.6qq95@786-.BBBBBBBBBBBBBBBBBBBBBBB  BBBBBBBBBBBB",
"BBBBBBBBBBBBBBBBB BBBBBBBBBBBBBBBBBBBBB.+-69=;0q6&;2*6eq0>*7e2.BBBBBBBBBBBBBBBBBBBBBBB  BBBBBBBBBBBB",
"BBBBBBBBBBBBBBBBB BBBBBBBBBBBBBBBBBBBBB. ;w6X8e6=:qq:-6qqqO2e>.BBBBBBBBBBBBBBBBBBBBBBBB BBBBBBBBBBBB",
"BBBBBBBBBBBBBBBBB  BBBBBBBBBBBBBBBBBBBB.O>0>&0q*&qqq6+@6qq*;92oBBBBBBBBBBBBBBBBBBBBBBBB  BBBBBBBBBBB",
"BBBBBBBBBBBBBBBB  BBBBBBBBBBBBBBBBBBBBBo>w>+0q0==qqq+  +680=-:.BBBBBBBBBBBBBBBBBBBBBBBBB BBBBBBBBBBB",
"BBBBBBBBBBBBBBBB BBBBBBBBBBBBBBBBBBBBBB.>q>+00$;qq08+   .X60- .BBBBBBBBBBBBBBBBBBBBBBBBBB BBBBBBBBBB",
"BBBBBBBBBBBBBBBB BBBBBBBBBBBBBBBBBBBBBo >w080$>0q6+o      o6;  oBBBBBBBBBBBBBBBBBBBBBBBBB BBBBBBBBBB",
"BBBBBBBBBBBBBBBBB BBBBBBBBBBBBBBBBBBBB.:0qw9*:0e6+         O-=.,#BBBBBBBBBBBBBBBBBBBBBBBB BBBBBBBBBB",
"BBBBBBBBBBBBBBBBBB  BBBBBBBBBBBBBBBBBBo7>68=-0>=$           -2o4oBBBBBBBBBBBBBBBBBBBBBBBB BBBBBBBBBB",
"BBBBBBBBBBBBBBBBBBBB BBBBBBBBBBBBBBBBBo-=2>+05O             ==.,%#BBBBBBBBBBBBBBBBBBBBBBB BBBBBBBBBB",
"BBBBBBBBBBBBBBBBBBBBB BBBBBBBBBBBBBBBB.o>8-O5X   .BBBo     BB  o1%#BBBBBBBBBBBBBBBBBBBBB BBBBBBBBBBB",
"BBBBBBBBBBBBBBBBBBBBBBBBBBBBBBBBBBBBBBX2@ .      .BBBo     BBBBBo1%.BBBBBBBBBBBBBBBBBBB BBBBBBBBBBBB",
"BBBBBBBBBBBBBBBBBBBBBBBBBBBBBBBBBBBBBB.o. BB    oBBBBBo    BBBBBB#. BBBBBBBBBBBBBBBBBBB BBBBBBBBBBBB",
"BBBBBBBBBBBBBBBBBBBBBBBBBBBBBBBBBBBBBBBBBBBB    oBBBBBB    BBBBBBBBBBBBBBBBBBBBBBBBBBB BBBBBBBBBBBBB",
"BBBBBBBBBBBBBBBBBBBBBBBBBBBBBBBBBBBBBBBBBBBBB   oBBBBBB   oBBBBBBBBBBBBBBBBBBBBBBBBBBBBBBBBBBBBBBBBB",
"BBBBBBBBBBBBBBBBBBBBBBBBBBBBBBBBBBBBBBBBBBBBB   OBBBBBB   BBBBBBBBBBBBBBBBBBBBBBBBBBBBBBBBBBBBBBBBBB",
"BBBBBBBBBBBBBBBBBBBBBBBBBBBBBBBBBBBBBBBBBBBBB  .BBBBBBB.  BBBBBBBBBBBBBBBBBBBBBBBBBBBBBBBBBBBBBBBBBB",
"BBBBBBBBBBBBBBBBBBBBBBBBBBBBBBBBBBBBBBBBBBBBB  BBBBBBBBB .BBBBBBBBBBBBBBBBBBBBBBBBBBBBBBBBBBBBBBBBBB",
"BBBBBBBBBBBBBBBBBBBBBBBBBBBBBBBBBBBBBBBBBBBBBB BBBBBBBBB.BBBBBBBBBBBBBBBBBBBBBBBBBBBBBBBBBBBBBBBBBBB",
"BBBBBBBBBBBBBBBBBBBBBBBBBBBBBBBBBBBBBBBBBBBBBBBBBBBBBBBBBBBBBBBBBBBBBBBBBBBBBBBBBBBBBBBBBBBBBBBBBBBB"
};
