/* XPM */
static char *result[] = {
/* columns rows colors chars-per-pixel */
"100 74 57 1 ",
"  c #010101",
". c #06060A",
"X c #07080C",
"o c #0B0B0B",
"O c #0A0B14",
"+ c #0C0E19",
"@ c #0F111C",
"# c #151515",
"$ c #10131F",
"% c #1B1B1B",
"& c #121524",
"* c #141827",
"= c #16192A",
"- c #181C2E",
"; c #1A1E32",
": c #1C2136",
"> c #1E233B",
", c #242424",
"< c #272828",
"1 c #2A2A2B",
"2 c #20253E",
"3 c #323232",
"4 c #3A3A3A",
"5 c #212741",
"6 c #242945",
"7 c #262C4B",
"8 c #282F4E",
"9 c #292F50",
"0 c #2B3254",
"q c #2E365B",
"w c #2F385E",
"e c #30385F",
"r c gray26",
"t c #4B4B4B",
"y c #525252",
"u c #5D5D5D",
"i c #656565",
"p c #696969",
"a c #747474",
"s c #7C7C7C",
"d c #838383",
"f c #8B8B8B",
"g c gray58",
"h c #9C9C9C",
"j c #A6A6A6",
"k c #ABABAB",
"l c #B6B6B6",
"z c #BDBDBD",
"x c #C2C2C2",
"c c #CBCBCB",
"v c #D3D3D3",
"b c #DEDEDE",
"n c #E4E4E4",
"m c #EBEBEB",
"M c #F4F4F4",
"N c #FEFEFE",
"B c None",
/* pixels */
"BBBBBBBBBBBBBBBBBBBBBBBBBBBBBBBBBBBB   BBBBBBBBBBBBBBBBBBBBBBBBBBBBBBBBBBBBBBBBBBBBBBBBBBBBBBBBBBBBB",
"BBBBBBBBBBBBBBBBBBBBBBBBBBBBBBB BBBB BBBBBBBBBBBBBB BBBBBBBBBBB BBBBBBBBBBBBBBBBBBBBBBBBBBBBBBBBBBBB",
"BBBBBBBBBBBBBBBBBBBBBBBBBBBBBBB BBB  BBBBBBBBBBBBB BBBBBBBBBBBB BBBBBBBBBBBBBBBBBBBBBBBBBBBBBBBBBBBB",
"BBBBBBBBBBBBBBBBBBBBBBBBBBBBBBBB BB  BBBBBBBBBBBBBB BBBBBBBBBBB  BBBBB BBBBBBBBBBBBBBBBBBBBBBBBBBBBB",
"BBBBBBBBBBBBBBBBBBBBBBBBBBBBBBBB BBB BBBBBBBBBBBBB BBBBBBBBBBBBB  BBBB BBBBBBBBBBBBBBBBBBBBBBBBBBBBB",
"BBBBBBBBBBBBBBBBBBBBBBBBBBBBBBBB BBBBBBB,%BBBBBBB  BBBBBBB%,BBBB  BBB BBBBBBBBBBBBBBBBBBBBBBBBBBBBBB",
"BBBBBBBBBBBBBBBBBBBBBBBBBBBBBBBB BBBBBBosgoBBBBB BBBBBBBBogs#BBB BBBB BBBBBBBBBBBBBBBBBBBBBBBBBBBBBB",
"BBBBBBBBBBBBBBBBBBBBBBBBBBBBBBBB BBBBB#dbj oBBBB BBBBBBBo jbdoBBBBBBBB BBBBBBBBBBBBBBBBBBBBBBBBBBBBB",
"BBBBBBBBBBBBBBBBBBBBBBBBBBBBBBBB BBBB,sbNcBBBBBB BBBBBBBBBvNvs,BBBBBBB BBBBBBBBBBBBBBBBBBBBBBBBBBBBB",
"BBBBBBBBBBBBBBBBBBBBBBBBBBBBBBBB BBBB%cNNvBBoBBBB BBBBBoBBbNNv%BBBBBB  BBBBBBBBBBBBBBBBBBBBBBBBBBBBB",
"BBBBBBBBBBBBBBBBBBBBBBBBBBBBBBB BBBBBtbNnfooBBBB  BBBBBB..fnNbtBBBBBB BBBBBBBBBBBBBBBBBBBBBBBBBBBBBB",
"BBBBBBBBBBBBBBBBBBBBBBBBBBBBBB BBBBB1bNmsoBBBBBB BBBBBBBBBosmNn1BBBBBB BBBBBBBBBBBBBBBBBBBBBBBBBBBBB",
"BBBBBBBBBBBBBBBBBBBBBBBBBBBBBB  BBBB3mNp#BBBBBBB  BBBBBBBBB%pNm3BBBBBB BBBBBBBBBBBBBBBBBBBBBBBBBBBBB",
"BBBBBBBBBBBBBBBBBBBBBBBBBBBBBBB  BBB1mNtBBBBBBBBB BBBBBBBBBBtNm1BBBBBB BBBBBBBBBBBBBBBBBBBBBBBBBBBBB",
"BBBBBBBBBBBBBBBBBBBBBBBBBBBBBBB  BBB3mNluBBBBBBBB BBBBBBBBBulNm3BBBBB BBBBBBBBBBBBBBBBBBBBBBBBBBBBBB",
"BBBBBBBBBBBBBBBBBBBBBBBBBBBBBB  BBBB3mNNs BBBBBBBBBBBBBBBB aNNm3BBBBB BBBBBBBBBBBBBBBBBBBBBBBBBBBBBB",
"BBBBBBBBBBBBBBBBBBBBBBBBBBBB  BBBBBB3lMNh4BBBBBBBBBBBBBBBB4hNMl3BBBBB  BBBBBBBBBBBBBBBBBBBBBBBBBBBBB",
"BBBBBBBBBBBBBBBBBBBBBBBBBBBBB   BBBBB,vNNk,,,,,,,,,,,,,,,,kNNv,BBBBBB  BBBBBBBBBBBBBBBBBBBBBBBBBBBBB",
"BBBBBBBBBBBBBBBBBBBBBBBBBBBBBBB BBBBB%cNNMbnbnnbbbbnbnbnnbMNNc%BBBBB  BBBBBBBBBBBBBBBBBBBBBBBBBBBBBB",
"BBBBBBBBBBBBBBBBBBBBBBBBBBBBBBB BBBBBBrzNNNNNNNNNNNNNNNNNNNNzrBBBBB  BBBBBBBBBBBBBBBBBBBBBBBBBBBBBBB",
"BBBBBBBBBBBBBBBBBBBBBBBBBBBBBB  BBBBBBokNNNNNNNNNNNNNNNNNNNNkoBBBB BBBBBBBBBBBBBBBBBBBBBBBBBBBBBBBBB",
"BBBBBBBBBBBBBBBBBBBBBBBBBBBBB  BBBBBBBokNNNNNNNNNNNNNNNNNNNNkoBBBBB  BBBBBBBBBBBBBBBBBBBBBBBBBBBBBBB",
"BBBBBBBBBBBBBBBBBBBBBBBBBBBBBB   BBBBBokNNNMxlbNNNNNNblxMNNNkoBBBBBBB   BBBBBBBBBBBBBBBBBBBBBBBBBBBB",
"BBBBBBBBBBBBBBBBBBBBBBBBBBBBBBBBBBBBBBokNNNx, smNNNNms ,xNNNkoBBBBBBBB  BBBBBBBBBBBBBBBBBBBBBBBBBBBB",
"BBBBBBBBBBBBBBBBBBBBBBBBBBBBBBBBBBBBBBokNNc,. oaNNNNao  ,cNNkoBBBBBBB  BBBBBBBBBBBBBBBBBBBBBBBBBBBBB",
"BBBBBBBBBBBBBBBBBBBBBBBBBBBBBBBBBBBBBBokNNco   iNNNNi   ocNNkoBBBBBBBB  BBBBBBBBBBBBBBBBBBBBBBBBBBBB",
"BBBBBBBBBBBBBBBBBBBBBBBBBBBBBBBBBBBBBBokNNco   iNNNNi   oxNNkoBBBBBBBBBBBBBBBBBBBBBBBBBBBBBBBBBBBBBB",
"BBBBBBBBBBBBBBBBBBBBBBBBBBBBBBBBBBBBBBokNNc#   iNNNNi   #cNNkoBBBBBBBBBBBBBBBBBBBBBBBBBBBBBBBBBBBBBB",
"BBBBBBBBBBBBBBBBBBBBBBBBBBBBBBBBBBBBBBokNNco   iNNNNi   ocNNkoBBBBBBBBBB BBBBBBBBBBBBBBBBBBBBBBBBBBB",
"BBBBBBBBBBBBBBBBBBBBBBBBBB  BBBBBBBBBBokNNv3. #dNNNNd# .3vNNkoBBBBBBBBB BBBBBBBBBBBBBBBBBBBBBBBBBBBB",
"BBBBBBBBBBBBBBBBBBBBBBBBB  BBBBBBBBBBBohMNNv3ofMNNNNMfo3vNNNhoBBBBBBBBB BBBBBBBBBBBBBBBBBBBBBBBBBBBB",
"BBBBBBBBBBBBBBBBBBBBBBBBBBB  BBBBBBBBBo%hNNNvvmNNNNNNmvvNNNh%oBBBBBBBBB  BBBBBBBBBBBBBBBBBBBBBBBBBBB",
"BBBBBBBBBBBBBBBBBBBBBBBBBBBB BBBBBBBoBB dNNNNNNNNNNNNNNNNNNd BBBBBBBBBBB BBBBBBBBBBBBBBBBBBBBBBBBBBB",
"BBBBBBBBBBBBBBBBBBBBBBBBBB  BBBBBBB%,BB.4kNNNNNNNNNNNNNNNNk4oBBBBBBBBBBB BBBBBBBBBBBBBBBBBBBBBBBBBBB",
"BBBBBBBBBBBBBBBBBBBBBBBBBB BBBBBBB#,3%By14lNNNNNNNNNNNNNMl4 BBBBBBBBBBBB BBBBBBBBBBBBBBBBBBBBBBBBBBB",
"BBBBBBBBBBBBBBBBBBBBBBBBBB BBBBBBB%4r4#fp.3xcMNNNNNNNNMcx4 BBBBBBBBBBBBB BBBBBBBBBBBBBBBBBBBBBBBBBBB",
"BBBBBBBBBBBBBBBBBBBBBBBBBB BBBBBBBB%44oo143##kmnnmmnnmk%#BBBBBBBBBBBBBBB  BBBBBBBBBBBBBBBBBBBBBBBBBB",
"BBBBBBBBBBBBBBBBBBBBBBBBBB BBBBBBBBB#3o<4443o%1<<,<<<1* BBBBBBBBBBBBBBBBB BBBBBBBBBBBBBBBBBBBBBBBBBB",
"BBBBBBBBBBBBBBBBBBBBBBBBB  BBBBBBBBBB#14r3##22@O-.:>++5>. BBBBBBBBBBBBBB  BBBBBBBBBBBBBBBBBBBBBBBBBB",
"BBBBBBBBBBBBBBBBBBBBBBBBB BBBBBBBBBB.o3r3O.;0w*&6X0e&*e0;..BBBBBBBBBBBBB BBBBBBBBBBBBBBBBBBBBBBBBBBB",
"BBBBBBBBBBBBBBBBBBBBBBBB BBBBBBBBBB%#%,4%o-qqw*&8*>0>-5qq-XoBBBBBBBBBBBB BBBBBBBBBBBBBBBBBBBBBBBBBBB",
"BBBBBBBBBBBBBBBBBBBBBBBB BBBBBBBBBB%33#3%$qqq7@&q9X6q>&7qq#oBBBBBBBBBBBB  BBBBBBBBBBBBBBBBBBBBBBBBBB",
"BBBBBBBBBBBBBBBBBBBBBBBBB BBBBBBBBBB.o14#$qq9&.*00+>qq5+7q@.BBBBBBBBBBBBB BBBBBBBBBBBBBBBBBBBBBBBBBB",
"BBBBBBBBBBBBBBBBBBBBBBBBB BBBBBBBBBBBBo..$q0@29:&08+>q06+7&.BBBBBBBBBBBBB BBBBBBBBBBBBBBBBBBBBBBBBBB",
"BBBBBBBBBBBBBBBBBBBBBBBB BBBBBBBBBBBBBB. $q0X5e;+q0+:2-8X6& BBBBBBBBBBBBB BBBBBBBBBBBBBBBBBBBBBBBBBB",
"BBBBBBBBBBBBBBBBBBBBBBBB BBBBBBBBBBBBBBo$68=;0w:Oq0+:8-*;=;@oBBBBBBBBBBBB    BBBBBBBBBBBBBBBBBBBBBBB",
"BBBBBBBBBBBBBBBBBBBBBBBB BBBBBBBBBBBBBB -e6X8w6-=>0;-62O9O>;.BBBBBBBBBBBBBB  BBBBBBBBBBBBBBBBBBBBBBB",
"BBBBBBBBBBBBBBBBBBBBBBBBB  BBBBBBBBBBBoX>02$07*;6X0w;:2O8O>>XoBBBBBBBBBBBB  BBBBBBBBBBBBBBBBBBBBBBBB",
"BBBBBBBBBBBBBBBBBBBBBBBBBB  BBBBBBBBBB.2w2O08$:q6@6qqq2X8$;9;.BBBBBBBBBBBB BBBBBBBBBBBBBBBBBBBBBBBBB",
"BBBBBBBBBBBBBBBBBBBBBBBBB  BBBBBBBBBBB.2w;+8+2qq06+6wq6O89*XX.BBBBBBBBBBBB  BBBBBBBBBBBBBBBBBBBBBBBB",
"BBBBBBBBBBBBBBBBBBBBBBBBB BBBBBBBBBBBB.2;*89X5wq7+ 6wq02$786-.BBBBBBBBBBBBB BBBBBBBBBBBBBBBBBBBBBBBB",
"BBBBBBBBBBBBBBBBBBBBBBBBB BBBBBBBBBBBB.+;69=;0w6*;>*6ww02*7w2oBBBBBBBBBBBB  BBBBBBBBBBBBBBBBBBBBBBBB",
"BBBBBBBBBBBBBBBBBBBBBBBBB BBBBBBBBBBBB. ;e7X8q6=;wq:-6qwqO2w2.BBBBBBBBBBBB  BBBBBBBBBBBBBBBBBBBBBBBB",
"BBBBBBBBBBBBBBBBBBBBBBBBB  BBBBBBBBBBB.X>9>&0w*&wqq6+@6qq*-82.BBBBBBBBBBBBB BBBBBBBBBBBBBBBBBBBBBBBB",
"BBBBBBBBBBBBBBBBBBBBBBBB  BBBBBBBBBBBB.2q>O9q9*=qw0+  +770=-;oBBBBBBBBBBBBB  BBBBBBBBBBBBBBBBBBBBBBB",
"BBBBBBBBBBBBBBBBBBBBBBBB BBBBBBBBBBBBBo>e>+q0&;qq09+   ..6q- .BBBBBBBBBBBBBB BBBBBBBBBBBBBBBBBBBBBBB",
"BBBBBBBBBBBBBBBBBBBBBBBB BBBBBBBBBBBBo 2w080$:0w7OO      o5;  oBBBBBBBBBBBBBB BBBBBBBBBBBBBBBBBBBBBB",
"BBBBBBBBBBBBBBBBBBBBBBBBB BBBBBBBBBBBo;0qe8*:0q6O         O-*.,#BBBBBBBBBBBBB BBBBBBBBBBBBBBBBBBBBBB",
"BBBBBBBBBBBBBBBBBBBBBBBBBB  BBBBBBBBBo7>67--02-@           -5o4oBBBBBBBBBBBBB BBBBBBBBBBBBBBBBBBBBBB",
"BBBBBBBBBBBBBBBBBBBBBBBBBBBB BBBBBBBB.;=5>O05O    .        *=o,%#BBBBBBBBBBBB BBBBBBBBBBBBBBBBBBBBBB",
"BBBBBBBBBBBBBBBBBBBBBBBBBBBBB BBBBBBB.X:7-O2X   oBBBo     BB  o1%#BBBBBBBBBBB BBBBBBBBBBBBBBBBBBBBBB",
"BBBBBBBBBBBBBBBBBBBBBBBBBBBBBBBBBBBBBX2$ ..     oBBBo     BBBBBo<%.BBBBBBBBB BBBBBBBBBBBBBBBBBBBBBBB",
"BBBBBBBBBBBBBBBBBBBBBBBBBBBBBBBBBBBBB.X..BB    oBBBBBo    BBBBBB#. BBBBBBBB BBBBBBBBBBBBBBBBBBBBBBBB",
"BBBBBBBBBBBBBBBBBBBBBBBBBBBBBBBBBBBBBBBBBBB    oBBBBBB    BBBBBBBBBBBBBBBBB BBBBBBBBBBBBBBBBBBBBBBBB",
"BBBBBBBBBBBBBBBBBBBBBBBBBBBBBBBBBBBBBBBBBBBB   oBBBBBB   oBBBBBBBBBBBBBBBB BBBBBBBBBBBBBBBBBBBBBBBBB",
"BBBBBBBBBBBBBBBBBBBBBBBBBBBBBBBBBBBBBBBBBBBB   oBBBBBB   BBBBBBBBBBBBBBBBBBBBBBBBBBBBBBBBBBBBBBBBBBB",
"BBBBBBBBBBBBBBBBBBBBBBBBBBBBBBBBBBBBBBBBBBBB  .BBBBBBB.  BBBBBBBBBBBBBBBBBBBBBBBBBBBBBBBBBBBBBBBBBBB",
"BBBBBBBBBBBBBBBBBBBBBBBBBBBBBBBBBBBBBBBBBBBB  BBBBBBBBB .BBBBBBBBBBBBBBBBBBBBBBBBBBBBBBBBBBBBBBBBBBB",
"BBBBBBBBBBBBBBBBBBBBBBBBBBBBBBBBBBBBBBBBBBBBB BBBBBBBBB.BBBBBBBBBBBBBBBBBBBBBBBBBBBBBBBBBBBBBBBBBBBB",
"BBBBBBBBBBBBBBBBBBBBBBBBBBBBBBBBBBBBBBBBBBBBBBBBBBBBBBBBBBBBBBBBBBBBBBBBBBBBBBBBBBBBBBBBBBBBBBBBBBBB",
"BBBBBBBBBBBBBBBBBBBBBBBBBBBBBBBBBBBBBBBBBBBBBBBBBBBBBBBBBBBBBBBBBBBBBBBBBBBBBBBBBBBBBBBBBBBBBBBBBBBB",
"BBBBBBBBBBBBBBBBBBBBBBBBBBBBBBBBBBBBBBBBBBBBBBBBBBBBBBBBBBBBBBBBBBBBBBBBBBBBBBBBBBBBBBBBBBBBBBBBBBBB",
"BBBBBBBBBBBBBBBBBBBBBBBBBBBBBBBBBBBBBBBBBBBBBBBBBBBBBBBBBBBBBBBBBBBBBBBBBBBBBBBBBBBBBBBBBBBBBBBBBBBB",
"BBBBBBBBBBBBBBBBBBBBBBBBBBBBBBBBBBBBBBBBBBBBBBBBBBBBBBBBBBBBBBBBBBBBBBBBBBBBBBBBBBBBBBBBBBBBBBBBBBBB"
};
