/* XPM */
static char *result[] = {
/* columns rows colors chars-per-pixel */
"120 74 65 1 ",
"  c #473636",
". c #493737",
"X c #4A3837",
"o c #4C3939",
"O c #513E3D",
"+ c #54413F",
"@ c #564241",
"# c #5B4444",
"$ c #5E4946",
"% c #5F4848",
"& c #654947",
"* c #634B4A",
"= c #694E4E",
"- c #64514B",
"; c #69514E",
": c #6D5251",
"> c #6C5951",
", c #725655",
"< c #7A5757",
"1 c #735856",
"2 c #755758",
"3 c #765959",
"4 c #7A5C5B",
"5 c #746057",
"6 c #7E615E",
"7 c #7B685B",
"8 c #7C6360",
"9 c #80625F",
"0 c #89635D",
"q c #836562",
"w c #866964",
"e c #896A66",
"r c #8D6D6A",
"t c #906F6B",
"y c #8A7167",
"u c #8D736A",
"i c #8E7B69",
"p c #93736E",
"a c #93796D",
"s c #967570",
"d c #987771",
"f c #977C71",
"g c #9A7B73",
"h c #9D8275",
"j c #9C8A74",
"k c #A08477",
"l c #A18C77",
"z c #A28678",
"x c #A58C7B",
"c c #A88F7D",
"v c #A5927B",
"b c #AA937E",
"n c #AA987E",
"m c #AC9680",
"M c #AD9981",
"N c #B19D84",
"B c #B6A487",
"V c #B7A588",
"C c #B8A688",
"Z c #B4A98B",
"A c #B9A88A",
"S c #BFB094",
"D c #C0AD92",
"F c #D0C19F",
"G c None",
/* pixels */
"GGGGGGGGGGGGGGGGGGGGGGGGGGGGGGGGGGGGGGGGGGGGGGGGGGG. . GGGGGGGGGGGGGGGGGGGGGGGGGGGGGGGGGGGGGGGGGGGGGGGGGGGGGGGGGGGGGGGGG",
"GGGGGGGGGGGGGGGGGGGGGGGGGGGGGGGGGGGGGGGGGGGGGGG   $1,1>o...oGGGGGGGGGGGGGGGGGGGGGGGGGGGGGGGGGGGGGGGGGGGGGGGGGGGGGGGGGGGG",
"GGGGGGGGGGGGGGGGGGGGGGGGGGGGGGGGGGGGGGGGGGGGGG@@$$4hgha-$$+o.GGGGGGGGGGGGGGGGGGGGGGGGGGGGGGGGGGGGGGGGGGGGGGGGGGGGGGGGGGG",
"GGGGGGGGGGGGGGGGGGGGGGGGGGGGGGGGGGGGGGGGGGGXXo6hnnMBNBBnnvpGG.XXXGGGGGGGGGGGGGGGGGGGGGGGGGGGGGGGGGGGGGGGGGGGGGGGGGGGGGGG",
"GGGGGGGGGGGGGGGGGGGGGGGGGGGGGGGGGGGGGGGGG  ;8uxMCCBBBBBBBBbNviiy3+   .GGGGGGGGGGGGGGGGGGGGGGGGGGGGGGGGGGGGGGGGGGGGGGGGGG",
"GGGGGGGGGGGGGGGGGGGGGGGGGGGGGGGGGGGGGGGG@$-wcCBBBCVBBBVBBVVBVCCMa>---$#GGGGGGGGGGGGGGGGGGGGGGGGGGGGGGGGGGGGGGGGGGGGGGGGG",
"GGGGGGGGGGGGGGGGGGGGGGGGGGGGGGGGGGGGGGo.1gMBBBCBBBBBBBBBBBBBBBVVBBMBBhqoGGGGGGGGGGGGGGGGGGGGGGGGGGGGGGGGGGGGGGGGGGGGGGGG",
"GGGGGGGGGGGGGGGGGGGGGGGGGGGGGGGGGGGG.#:4fMVVVBCNVBBBVBBBBBBVBBVVVVVBzgpq$GGGGGGGGGGGGGGGGGGGGGGGGGGGGGGGGGGGGGGGGGGGGGGG",
"GGGGGGGGGGGGGGGGGGGGGGGGGGGGGGGGGGGG &qskmmmNCCCBBBBBBBBBBBBVBnnbnmxq666@.GGGGGGGGGGGGGGGGGGGGGGGGGGGGGGGGGGGGGGGGGGGGGG",
"GGGGGGGGGGGGGGGGGGGGGGGGGGGGGGGGGGGGo=ssssssgNNCBBBBBBBBBBVVBNgtpppeO..o..GGGGGGGGGGGGGGGGGGGGGGGGGGGGGGGGGGGGGGGGGGGGGG",
"GGGGGGGGGGGGGGGGGGGGGGGGGGGGGGGGGGGo*9sswqtsdggggNNBVBBBBVVchg;####@.......GGGGGGGGGGGGGGGGGGGGGGGGGGGGGGGGGGGGGGGGGGGGG",
"GGGGGGGGGGGGGGGGGGGGGGGGGGGGGGGGGGGo,qssrqssssdsscmcmNVBBNvq33O. .. .....o.GGGGGGGGGGGGGGGGGGGGGGGGGGGGGGGGGGGGGGGGGGGGG",
"GGGGGGGGGGGGGGGGGGGGGGGGGGGGGGGGGGGo:qsssssssssssssssxNBCMp$X..............GGGGGGGGGGGGGGGGGGGGGGGGGGGGGGGGGGGGGGGGGGGGG",
"GGGGGGGGGGGGGGGGGGGGGGGGGGGGGGGGGGGo:qsssssssssssssssfhBFS#o.X...............GGGGGGGGGGGGGGGGGGGGGGGGGGGGGGGGGGGGGGGGGGG",
"GGGGGGGGGGGGGGGGGGGGGGGGGGGGGGGGGGGo4ewwrsssssssssssssfzDBoX.......o.........GGGGGGGGGGGGGGGGGGGGGGGGGGGGGGGGGGGGGGGGGGG",
"GGGGGGGGGGGGGGGGGGGGGGGGGGGGGGGGGGGOee23wssssssssssssssscj+X...X........o...oGGGGGGGGGGGGGGGGGGGGGGGGGGGGGGGGGGGGGGGGGGG",
"GGGGGGGGGGGGGGGGGGGGGGGGGGGGGGGGG.@2tr33qsssssssssssssssdp2@..................GGGGGGGGGGGGGGGGGGGGGGGGGGGGGGGGGGGGGGGGGG",
"GGGGGGGGGGGGGGGGGGGGGGGGGGGGGGGGG.@4ttwetssssssssssssssssr3@..................GGGGGGGGGGGGGGGGGGGGGGGGGGGGGGGGGGGGGGGGGG",
"GGGGGGGGGGGGGGGGGGGGGGGGGGGGGGGGG.@4tsdpdssssssssssssssssp3@..............o...GGGGGGGGGGGGGGGGGGGGGGGGGGGGGGGGGGGGGGGGGG",
"GGGGGGGGGGGGGGGGGGGGGGGGGGGGGGGGG.@<tssssssssssssssssssssr3@.....o...o.........GGGGGGGGGGGGGGGGGGGGGGGGGGGGGGGGGGGGGGGGG",
"GGGGGGGGGGGGGGGGGGGGGGGGGGGGG    .@<4rdsssssssssssspq6qsdt3:%...................GGGGGGGGGGGGGGGGGGGGGGGGGGGGGGGGGGGGGGGG",
"GGGGGGGGGGGGGGGGGGGGGGGGGGGGG#$&$#=8qqrrtdssssssssssq69rst44=.................. GGGGGGGGGGGGGGGGGGGGGGGGGGGGGGGGGGGGGGGG",
"GGGGGGGGGGGGGGGGGGGGGGGGGooo#udpssssse44edsddssssssssst4er33=o..................GGGGGGGGGGGGGGGGGGGGGGGGGGGGGGGGGGGGGGGG",
"GGGGGGGGGGGGGGGGGGGG. ..@:6ijmnnMmMMMbvcbMMmmNmxsssssssre433=..............o....GGGGGGGGGGGGGGGGGGGGGGGGGGGGGGGGGGGGGGGG",
"GGGGGGGGGGGGGGGGGGGG***>7ahMVVVBVVVVVVVVBBVVVVVNkdsdssssq234=....o ........ XX$$GGGGGGGGGGGGGGGGGGGGGGGGGGGGGGGGGGGGGGGG",
"GGGGGGGGGGGGGGGGGoo+qggMVVBVBBVBBVBBBBBBBBBBBBBBBkddssssq224=o... ..o...ooOOo+u3oOoXGGGGGGGGGGGGGGGGGGGGGGGGGGGGGGGGGGGG",
"GGGGGGGGGGGGGGG. 1uvmMNBBBBBBBBBBVBBBBVBBBBCBBBVBNNmgpssq2242:O. o    ..2wwweebbvla6. ..GGGGGGGGGGGGGGGGGGGGGGGGGGGGGGGG",
"GGGGGGGGGGGGGG@##ybVVBBBBBVBBVBBBBBBBVBVBBBBBBBBBBCNcxkr922<32O.X #::;;>pxxxxvNVVVMh775;@GGGGGGGGGGGGGGGGGGGGGGGGGGGGGGG",
"GGGGGGGGGGGGGo*44zNNVVBBBBBBBVBBBBBBBBVBBBBBBBBBBBBBCNN8333332O.oo4gggggmCBBVBBBBBBBVVMf;+++OGGGGGGGGGGGGGGGGGGGGGGGGGGG",
"GGGGGGGGGGGGo:qppfggMVVBBBBBBBBBBBBVBBBBBBBBBBBBBBBBBCm433<332O.oqhBNNNNBBBBBBBBBBBBBVBNbbva>.GGGGGGGGGGGGGGGGGGGGGGGGGG",
"GGGGGGGGGGG@=qpssssszxxNVBBBBBBVBVBBBBBBBBBBBBBBBCBBCCm632*:32==3txCCCBBBBBBBBBBBBBBBBBVCNxg1.GGGGGGGGGGGGGGGGGGGGGGGGGG",
"GGGGGGGGGG.#4rtpssssssdmNNBBBBBBBBBBBVBBBBBBCBBBBBBBNCm92:O:<22qdsxBBBBBBBBBBBBVBBBBBBBNNzee: GGGGGGGGGGGGGGGGGGGGGGGGGG",
"GGGGGGGGGG %422qsssssssddgNANZNZBBBBBBBVVVVVNVVVCCCNBVM632233<3qspxBBBNBBBBBBBBBVBVBBVMgf8Oooo.GGGGGGGGGGGGGGGGGGGGGGGGG",
"GGGGGGGGGG #2224ssssssssdszmZNZZBBVBBBBBNVVVVVNCNCCCVxy43:##*22qssgzzzmBBBBBBBBBBVVNxza=-$.....oGGGGGGGGGGGGGGGGGGGGGGGG",
"GGGGGGGGGGO=q9qqssssssssssszmZMZBBBBBVBBVVVNVNVVBBNMmw:34:o #44essssdsgmMNBBVBBBBMMcqq1.. .......GGGGGGGGGGGGGGGGGGGGGGG",
"GGGGGGGGGO:qpppsssssssssssddgNZZVBBBBBBBVNZVVVVMmmms6*O,3:o *pssssssdssddhBBBBBVMggwOoo..........GGGGGGGGGGGGGGGGGGGGGGG",
"GGGGGGGGGo,qssssssssssssssssshMZBZBBBBBVVVNZVZMgkzgs&oo23,==3ssssssssssssdhhmBVmf;*#X.X...o.......GGGGGGGGGGGGGGGGGGGGGG",
"GGGGGGGGGO,qsssprtssssssssssspmmBBBBBBBBMmMMmmt46684O.O,<346qrepsssssssssdssgmmf4o  XX.........X..GGGGGGGGGGGGGGGGGGGGGG",
"GGGGGGGGGo,8pppp4essssssssssssrmMMMMMMBBmtppsp*....o..O,333rr<<qsssssssssssssdd,.............X....GGGGGGGGGGGGGGGGGGGGGG",
"GGGGGGG #,eeq4rstssssssssssssspsh0000wwft49668#.......o3433rr33qssssssssssssssdq=o.X....X........o..GGGGGGGGGGGGGGGGGGGG",
"GGGGGGG.#4ttq2qssssssssssssssssrywq3334qq8434<*O......o*:4qtrqqrssssssssssssssse>o............X.....GGGGGGGGGGGGGGGGGGGG",
"GGGGGGG.#2tsp4essssssssssssssssr880<3333qp43333=........*qsssssssssssssssssssssw,o..................GGGGGGGGGGGGGGGGGGGG",
"GGGGGGG.#4tspppssssssssssssssssr88q233334433333=..o.....*6sssssssssssssssssssssw1o...................GGGGGGGGGGGGGGGGGGG",
"GGGGGGG.#4qtsstessssssssssssssr8433<44333333333=o.......:esssssssssssssssssssssw,o................ .. GGGGGGGGGGGGGGGGGG",
"GGGGGGG.#22qssq8pssssssssssssg88333333333333333:Oo......2ssssssssssssssgdgggggde2@oXX ....X.....o++#@@#+o.GGGGGGGGGGGGGG",
"GGGGGGG.#22qssstsssssssssssssg88533333333333332<:O......*9ssssssssssssgNNNNNNMgstr= .X..........@ejnnnnnGG.GGGGGGGGGGGGG",
"GGGGGGG.#4qtsssssssssssqrsssss8833333333433333343O......*9tsssssssddxmmBBVVBBBmmcdq:X..........%7cMCVVCCCi1OGGGGGGGGGGGG",
"GGGGGGG.#4tssssssssssss8essssr8333333333333343332O......*9sssssssrsgNBVBBBBBBBNBNkgp*#+......oo6hMBVBBBVVbpOGGGGGGGGGGGG",
"GGGGGGG.@4tsssssssssssspssssp8224223234<334<<3332O......*9ssssssp4egNVBBBBBBBBBBBBNBMh4oo....o,edgmBBVBBBBv@GGGGGGGGGGGG",
"GGGGGGG.@4tssssssstqtsssssssp32234<333333333333<2:#.....O=pssssss4qdzzxBBBBBBBBBBVVVVzq......OqpssugBVVBxzf@GGGGGGGGGGGG",
"GGGGGGG #<psssssspe6tsssssssr333333333333333333333*......@esssstrqqtssdmNBBBBBBBBBNmMa1......O4rpr4wvvvxw84o.GGGGGGGGGGG",
"GGGGGGG.#<ussssspq6sssssssssr83333334<333333<33324*......@2rsssr4te6sssdMBBBBBBBBBxpp*........o2p43344<2@ooXXXGGGGGGGGGG",
"GGGGGGG.@4tsssssq44sssssssse9<333333<433<33<222334*..... O3rssse4ssrssssgmNBCBBmhk6#$O......  .@=333<331O ...XGGGGGGGGGG",
"GGGGGGG.#<tssse3==,4tssssssq22333333333333342=2224*o%****=3qtsq2=48rsssssgmmmmmf46# ........O@o o*133332#O... GGGGGGGGGG",
"GGGGGGG.@3tsdp: .. o6ptpssse2233333333233333=O:333=Orsssap64qt@...%4sssssssssst:X.XX.....ooo*,O...=<33333*...XGGGGGGGGGG",
"GGGGGGG.o@2wp8*....oO#%rssdq423333333<33332*@:29strrmMMNNMbbh4@...o#rssssssse4&O.........@:qre1@..o#3<43@o..oGGGGGGGGGGG",
"GGGGGGGG.o,6qq*...o. .o=8ee8333343,%2338333#O<8qeweuNVVVVBVVv9@....Oqssssssde1O...o .... #wpdpq,@..O****o...GGGGGGGGGGGG",
"GGGGGGGGGG446s:o........#2233333232O:3223<2@O,rr<66qnVBBBBBBbr@....o:wsssssde2o.......o. =pdssse,O.......GGGGGGGGGGGGGGG",
"GGGGGGGGGowptsq=o.o.....o@,33333251:33233,Oo.oqr4lNnBBBBBBBxeOo....oo4dssr4tr,O....... ..=sfdsspe1@.GGGGGGGGGGGGGGGGGGGG",
"GGGGGGGG#2utwsrq%O  .... o233332231833333:o O&4weaffxMBVnxxq*........:rsstwq2&o..X..o... *q3qssst<@.GGGGGGGGGGGGGGGGGGGG",
"GGGGGGGO*ste6tss4*ooo ...o:22222,,,,,,333,@o@229p4<4txNNhee#.........&4tsss6*.... .. ... @:o;rerq1@.GGGGGGGGGGGGGGGGGGGG",
"GGGGGGo:244qssssp8=o  o...o*<<442o.oo%3332,@O229p634tggd>oOo..........@<rss9*....o....X. ooGoOoOOoGGGGGGGGGGGGGGGGGGGGGG",
"GGGGGG.=3336wtrqsq=oo  ... *<<<:#o***%%232%&=32qsreepddp= ............o@*2s6= . ........o.GGGGGGGGGGGGGGGGGGGGGGGGGGGGGG",
"GGGGGG.*233<9se9sq=o oo..  #:::=#9883*o=:*.%,:1qssdsdpdp= .............  %q2%..o... o...oGGGGGGGGGGGGGGGGGGGGGGGGGGGGGGG",
"GGGGGGGo#32qssppsq;o..o....oooo#14114*.ooo..oo=8sssssdss; .X...o ...o.oGGGooo....GGGGGGGGGGGGGGGGGGGGGGGGGGGGGGGGGGGGGGG",
"GGGGGGGGO@@#**%**#+ .....GGGGGGG&+OOOO.GGGGGGG@:sddpqrdd; .......... ..GGGGGGGGGGGGGGGGGGGGGGGGGGGGGGGGGGGGGGGGGGGGGGGGG",
"GGGGGGGGG...     . X....GGGGGGGG.3233.oGGGGGGGG%q996:3q4& ...o ...o....GGGGGGGGGGGGGGGGGGGGGGGGGGGGGGGGGGGGGGGGGGGGGGGGG",
"GGGGGGGGGGGGGGGGGGGGGGGGGGGGGGGGGGGGGGGGGGGGGGGG..o...ooX......... ..GGGGGGGGGGGGGGGGGGGGGGGGGGGGGGGGGGGGGGGGGGGGGGGGGGG",
"GGGGGGGGGGGGGGGGGGGGGGGGGGGGGGGGGGGGGGGGGGGGGGGGGGGGGGGGGGGGGGGGGGGGGGGGGGGGGGGGGGGGGGGGGGGGGGGGGGGGGGGGGGGGGGGGGGGGGGGG",
"GGGGGGGGGGGGGGGGGGGGGGGGGGGGGGGGGGGGGGGGGGGGGGGGGGGGGGGGGGGGGGGGGGGGGGGGGGGGGGGGGGGGGGGGGGGGGGGGGGGGGGGGGGGGGGGGGGGGGGGG",
"GGGGGGGGGGGGGGGGGGGGGGGGGGGGGGGGGGGGGGGGGGGGGGGGGGGGGGGGGGGGGGGGGGGGGGGGGGGGGGGGGGGGGGGGGGGGGGGGGGGGGGGGGGGGGGGGGGGGGGGG",
"GGGGGGGGGGGGGGGGGGGGGGGGGGGGGGGGGGGGGGGGGGGGGGGGGGGGGGGGGGGGGGGGGGGGGGGGGGGGGGGGGGGGGGGGGGGGGGGGGGGGGGGGGGGGGGGGGGGGGGGG",
"GGGGGGGGGGGGGGGGGGGGGGGGGGGGGGGGGGGGGGGGGGGGGGGGGGGGGGGGGGGGGGGGGGGGGGGGGGGGGGGGGGGGGGGGGGGGGGGGGGGGGGGGGGGGGGGGGGGGGGGG",
"GGGGGGGGGGGGGGGGGGGGGGGGGGGGGGGGGGGGGGGGGGGGGGGGGGGGGGGGGGGGGGGGGGGGGGGGGGGGGGGGGGGGGGGGGGGGGGGGGGGGGGGGGGGGGGGGGGGGGGGG"
};
